<svg xmlns="http://www.w3.org/2000/svg" width="66.673" height="93.54" viewBox="0 0 66.673 93.54">
  <path id="Path_125" data-name="Path 125" d="M309.691,563.218h66.141v59.139H309.691Zm.024,79.3h66.2v1.361h-66.2Zm.054-92.179h65.906v1.676H309.769Zm.564,84.763h2.5l.368.016.324.042.283.066.246.086.209.1.179.117.147.126.122.134.1.136.074.134.056.131.04.123.027.112.014.1.008.08,0,.059-.029.292-.037.16-.056.163-.077.161-.1.158-.125.15-.153.141.136.113.129.136.121.158.109.179.093.2.072.219.046.238.016.256,0,.126-.018.137-.035.152-.054.16-.08.166-.11.171-.144.174-.184.173-.166.118-.185.093-.2.072-.2.053-.391.059-.179.011-.155,0h-2.742Zm1.248,3.4v1.534h1.467l.3-.016.16-.032.149-.062.133-.1.107-.147.04-.1.029-.109.019-.126.006-.144-.021-.221-.057-.169-.085-.125-.105-.085-.115-.056-.118-.03-.209-.016Zm0-2.381v1.361H313l.187-.011.168-.029.144-.051.12-.072.094-.1.07-.117.042-.141.014-.165-.014-.177-.046-.145-.069-.118-.1-.093-.113-.067-.133-.045-.145-.027-.16-.008Zm.259-77.411v.329l.021.331.051.321.085.3.131.3.155.236.171.181.185.131.195.075.2.027.214-.014.219-.056.233-.107.177-.133.131-.152.091-.161.059-.161L314.2,560l.022-.139.016-.118h.983l-.018.237-.038.238-.062.235-.08.227-.1.216-.112.2-.126.174-.137.149-.123.107-.145.1-.166.1-.181.088-.2.074-.209.059-.219.042-.228.021-.2,0-.195-.022-.187-.042-.179-.062-.169-.08-.16-.1-.152-.113-.141-.133-.133-.144-.123-.163-.211-.364-.169-.415-.125-.46-.038-.227-.03-.26-.021-.283-.006-.294.027-.61.037-.289.051-.268.121-.414.157-.382.193-.345.235-.3.136-.131.149-.117.16-.1.174-.085.189-.067.2-.049.217-.03.235-.01.289.014.163.026.168.04.176.062.179.083.181.112.181.144.238.229.182.24.134.241.093.236.059.224.035.2.016.173.006.136h-.983l-.022-.15-.046-.181-.08-.2-.117-.192-.163-.171-.1-.073-.113-.061-.128-.048-.144-.03-.16-.016-.177.008-.169.03-.161.064-.145.094-.136.117-.118.139-.105.16-.085.176-.07.189-.053.195-.046.249-.035.288Zm1.342,70.264-.805-2.314-.748,2.314Zm1.988,2.215H313.9l-.419-1.194h-2.247l-.422,1.194h-1.272l2.112-5.954h1.438Zm2.537,3.915h1.246v5.949h-1.246Zm1.82-7.109h2.426V631.2h-.748l-.149-.749-.118.144-.145.158-.177.161-.214.15-.259.131-.305.1-.173.035-.187.024-.2.01-.217,0-.2-.016-.181-.022-.32-.069-.267-.091-.22-.105-.184-.118-.152-.12-.128-.117-.11-.105-.246-.273-.208-.305-.169-.334-.131-.356-.093-.374-.053-.383-.013-.391.027-.391.067-.383.109-.375.149-.355.192-.336.232-.305.276-.273.316-.232.363-.187.214-.08.264-.07.315-.046.364-.019.225,0,.241.016.252.03.26.053.262.083.26.115.253.153.24.2.225.246.168.232.118.211.078.189.05.161.024.133.014.1.006.069h-1.139l-.1-.248-.131-.208-.161-.171-.184-.133-.2-.1-.224-.069-.233-.04-.241-.013-.3.021-.264.059-.251.1-.252.149-.134.128-.12.147-.1.161-.086.176-.133.38-.075.4-.024.4.024.385.069.348.048.155.057.134.1.185.12.179.142.171.161.155.184.137.206.112.227.083.251.049.168,0,.177-.013.185-.032.185-.054.184-.077.174-.1.163-.126.147-.152.109-.139.083-.128.059-.118.04-.107.038-.182.011-.139h-1.384Zm1.288-72.248h3.6v1.037h-2.581v1.388h2.379v1.048h-2.379v1.558h2.691v1.037h-3.712Zm3.077,69.489h3.367l.227.021.224.046.211.074.2.1.177.128.152.161.122.192.085.224.067.227.053.28.011.158,0,.171-.022.179-.045.189-.061.177-.072.152-.085.13-.1.112-.23.192-.281.176.185.112.209.149.1.1.085.125.066.153.04.184.008.113.01.155.014.375.011.388.006.168,0,.136,0,.113.013.091.05.134.072.086.091.062v.221h-1.333l-.115-.27-.056-.286-.01-.253,0-.3.013-.654-.019-.141-.043-.121-.066-.1-.088-.085-.107-.066-.125-.046-.141-.027-.155-.01h-1.47v2.357h-1.245Zm1.245,1.024v1.558h1.708l.118-.014.129-.043.133-.072.125-.1.107-.126.083-.153.045-.181v-.208l-.01-.15-.029-.131-.054-.113-.077-.094-.1-.075-.131-.054-.161-.032-.193-.011Zm.868,11.856-.013-.241-.029-.237-.05-.23-.067-.22-.085-.208-.1-.19-.121-.171-.144-.147-.248-.182-.276-.123-.291-.069-.3-.021-.3.021-.291.069-.276.123-.252.182-.139.147-.121.171-.1.19-.085.208-.067.22-.048.23-.032.237-.011.241.011.243.032.238.048.232.067.222.085.206.1.19.121.173.139.147.252.182.276.121.291.069.3.022.3-.022.291-.069.276-.121.248-.182.144-.147.121-.173.1-.19.085-.206.067-.222.05-.232.029-.238Zm1.2,0-.016.337-.043.334-.075.326-.1.313-.126.3-.155.28-.177.257-.2.23-.2.179-.224.155-.238.126-.252.1-.265.08-.278.056-.283.034-.291.01-.288-.01-.281-.034-.273-.056-.265-.08-.252-.1-.238-.126-.221-.155-.2-.179-.2-.23-.179-.257-.153-.28-.129-.3-.1-.313-.074-.326-.046-.334-.014-.337.014-.334.046-.332.074-.324.1-.313.129-.3.153-.278.179-.259.2-.23.2-.179.221-.155.238-.13.252-.1.265-.08.273-.056.281-.032.288-.011.291.011.283.032.278.056.265.08.252.1.238.13.224.155.2.179.2.23.177.259.155.278.126.3.1.313.075.324.043.332Zm2.5-3.015h1.246v4.931h2.907v1.023H329.7Zm.492-79.352h2.764l.185.021.182.046.174.074.163.1.145.133.125.163.1.2.07.232.054.23.043.284,0,.331-.018.182-.037.188-.051.185-.059.157-.069.136-.078.115-.185.2-.227.173.147.117.166.155.08.1.067.128.054.155.032.188.01.118.008.157.014.384.01.395,0,.171,0,.136,0,.117.011.094.04.139.061.086.078.064v.221h-1.1l-.089-.272-.043-.289-.008-.254,0-.305.011-.673-.016-.142-.037-.123-.054-.106-.072-.085-.089-.066-.1-.048-.118-.027-.131-.01h-1.2v2.4h-1.019Zm.275,69.487h1.245v5.954h-1.245Zm.745-68.45v1.59h1.4l.1-.013.107-.043.109-.07.1-.1.088-.128.067-.156.035-.184v-.211l-.008-.155-.026-.136-.043-.117-.062-.1-.085-.078-.105-.056-.134-.034-.158-.013ZM336.4,610.2v8.822h4.64v-1.361l0-.342V609l0-1.414v-4.4l0-2.956V596l0-1.31v-6.013l0-.31v-1.055l0-.027,0-.409-.008-.471-.038-.518-.083-.548-.144-.561-.1-.28-.121-.28-.144-.273-.168-.267-.2-.259-.225-.246-.213-.2-.254-.2-.292-.189-.337-.173-.38-.145-.428-.113-.475-.07-.256-.016-.268,0-.383.022-.393.054-.4.085-.411.115-.419.144-.423.173-.431.2-.436.224-.441.248-.446.273-.449.294-.452.316-.454.336-.457.358-.914.765-.912.829-.908.888-.895.936-.877.976-.855,1.007-.826,1.031-.8,1.047-.756,1.051-.312.447-.321.476-.332.5-.34.529-.348.556-.353.58-.358.607-.361.631-.363.654-.363.679-.361.7-.359.724-.355.746-.352.769-.342.788-.336.81-.326.829-.313.848-.3.868-.289.885-.273.9-.257.92-.238.938-.222.955-.2.968-.177.986-.153,1-.128,1.013-.1,1.029-.075,1.039-.045,1.053-.018,1.066h4.647l.019-1.138.056-1.123.094-1.114.129-1.1.161-1.087.195-1.072.227-1.059.257-1.045Zm0-4.484H321.752l.395-.968.414-.951.43-.932.449-.909.465-.89.476-.871.489-.847.5-.826.508-.8.514-.78.523-.756.526-.732.529-.7.529-.681.529-.655.526-.626.524-.6.518-.572.511-.543.5-.516.491-.484.483-.455.467-.423.454-.391.436-.363.42-.328.4-.3.379-.26.356-.229.332-.193.305-.157.278-.121v1.523l0,.264v2.645l0,.778v1.654l0,.861v1.755l0,1.753v2.505l0,.777v2.05l0,.569Zm2.269,23.433-.019.229-.048.235-.075.23-.1.224-.12.209-.137.195-.155.172-.166.145-.149.1-.177.1-.2.094-.222.085-.24.075-.256.059-.267.04-.276.021-.249,0-.238-.022-.229-.043-.217-.061-.208-.078-.195-.1-.185-.114-.174-.128-.16-.144-.15-.158-.136-.173-.123-.185-.11-.2-.1-.209-.152-.452-.045-.224-.037-.254-.024-.275-.01-.289.01-.3.026-.3.043-.283.064-.26.147-.406.188-.377.235-.337.139-.153.15-.141.165-.126.181-.115.2-.1.212-.083.23-.065.248-.048.265-.03.286-.01.355.014.2.026.206.04.213.059.219.081.221.109.224.139.153.11.134.115.222.233.161.236.112.233.073.217.04.2.021.169.006.136h-1.2l-.026-.147-.056-.177-.1-.189-.144-.189-.2-.169-.123-.07-.139-.059-.158-.048-.176-.03-.2-.014-.216.008-.208.029-.192.062-.181.089-.163.113-.145.139-.126.155-.107.173-.086.185-.062.19-.054.243-.045.283-.029.308v.323l.026.324.062.312.1.291.163.292.187.232.208.177.224.129.243.075.252.027.256-.014.264-.056.153-.048.136-.056.219-.131.16-.15.112-.157.072-.158.045-.153.026-.136.019-.112Zm.8-73.4h3.982v1.037H342v5.032h-1.019V556.78h-1.512Zm.84,69.489h1.256v4.118l.01.147.032.16.057.161.1.15.144.134.2.106.125.04.141.03.161.019.181.008.174-.008.158-.019.141-.03.125-.04.2-.106.15-.134.105-.15.066-.161.034-.16.01-.147v-4.118h1.243v4.1l-.006.208-.029.225-.059.235-.1.243-.145.237-.2.23-.123.109-.142.105-.158.1-.181.093-.289.109-.31.078-.32.045-.321.018-.313-.016-.3-.04-.288-.062-.265-.08-.344-.211-.28-.224-.219-.23-.166-.237-.118-.238-.078-.237-.042-.233-.014-.225Zm.305,12.88-.013-.241-.029-.237-.049-.23-.065-.22-.086-.208-.1-.19-.123-.171-.142-.147-.249-.182-.275-.123-.291-.069-.3-.021-.3.021-.291.069-.273.123-.254.182-.139.147-.121.171-.1.19-.085.208-.067.22-.046.23-.03.237-.013.241.013.243.03.238.046.232.067.222.085.206.1.19.121.173.139.147.254.182.273.121.291.069.3.022.3-.022.291-.069.275-.121.249-.182.142-.147.123-.173.1-.19.086-.206.065-.222.049-.232.029-.238Zm1.2,0-.016.337-.045.334-.075.326-.1.313-.128.3-.153.28-.177.257-.2.23-.2.179-.222.155-.238.126-.253.1-.267.08-.276.056-.284.034-.289.01-.288-.01-.283-.034-.275-.056-.265-.08-.253-.1-.238-.126-.219-.155-.2-.179-.2-.23-.177-.257-.153-.28-.129-.3-.1-.313-.075-.326-.046-.334-.014-.337.014-.334.046-.332.075-.324.1-.313.129-.3.153-.278.177-.259.2-.23.2-.179.219-.155.238-.13.253-.1.265-.08.275-.056.283-.032.288-.011.289.011.284.032.276.056.267.08.253.1.238.13.222.155.2.179.2.23.177.259.153.278.128.3.1.313.075.324.045.332Zm2.566-56.023v36.889h8.357l1.178-.034.585-.045.583-.061.574-.08.569-.1.562-.117.553-.137.543-.155.532-.174.519-.2.508-.214.492-.237.478-.257.462-.276.444-.3.427-.321.406-.342.385-.364.364-.388.34-.411.318-.433.291-.457.265-.481.24-.5.209-.529.181-.553.152-.578.118-.6L365.1,610l.053-.655.018-.681-.034-.809-.1-.8-.165-.791-.227-.775-.286-.754-.342-.725-.4-.7-.449-.66-.5-.617-.545-.57-.591-.519-.31-.238-.321-.225-.332-.208-.34-.193-.35-.176-.359-.158-.366-.141-.377-.123-.383-.1-.393-.085v-.1l.438-.243.412-.286.391-.324.364-.361.34-.391.313-.42.288-.444.259-.465.232-.484.2-.5.174-.508.144-.516.112-.518.081-.521.049-.515.018-.51-.019-.761-.056-.724-.088-.686-.123-.65-.158-.617-.187-.582-.219-.55-.246-.518-.278-.486-.3-.455-.331-.427-.355-.4-.38-.369-.4-.344-.425-.316-.444-.291-.465-.267-.484-.243-.5-.222-.518-.2-.534-.177-.547-.158-.559-.139-.574-.121-.583-.1-.593-.086-1.211-.128-1.238-.07-1.258-.022Zm2.694,43.143h1.243v4.931h2.91v1.019h-4.153Zm.051,12.63h2.43v3.212h-.749l-.15-.754-.118.145-.147.156-.176.16-.216.152-.259.133-.305.1-.174.035-.187.024-.2.01-.216,0-.2-.016-.181-.022-.321-.067-.267-.091-.221-.107-.182-.117-.152-.12-.128-.117-.112-.107-.244-.272-.208-.305-.169-.332-.133-.358-.091-.374L344,638.44l-.013-.388.027-.391.067-.385.109-.374.149-.358.19-.334.235-.307.275-.272.318-.232.359-.189.216-.077.264-.069.315-.048.364-.018.224,0,.243.014.253.034.26.053.262.081.26.115.251.153.241.2.225.246.168.23.12.209.078.187.049.161.026.136.013.1.01.069h-1.144l-.1-.246-.133-.208-.161-.171-.185-.134-.2-.1-.222-.07-.233-.04-.243-.011-.291.019-.264.062-.251.1-.254.149-.137.128-.118.147-.1.161-.088.176-.129.38-.075.4-.022.4.022.387.067.347.048.152.057.136.1.184.122.18.141.171.161.157.182.136.206.114.228.081.253.046.166,0,.179-.013.184-.032.187-.056.182-.075.174-.1.163-.125.147-.152.109-.139.081-.129.061-.118.04-.107.038-.182.01-.137h-1.382Zm1.662-82.12h1.021v6.07h-1.021Zm.062,46.348H351.6l.759.014.778.043.786.078.785.115.773.158.756.208.727.257.35.152.34.164.328.181.313.195.3.213.286.23.27.246.253.265.233.283.214.3.192.321.171.342.149.363.123.385.1.406.072.428.043.451.016.476-.013.481-.037.459-.061.436-.085.414-.105.393-.126.372-.145.352-.168.331-.185.313-.2.294-.219.275-.238.257-.251.24-.265.224-.281.206-.292.19-.305.177-.318.16-.662.278-.7.225-.727.174-.748.129-.764.088-.773.048-.775.018h-3.413Zm0-15.923h1.232l.77.013.751.037.725.067.7.1.662.144.625.189.583.241.275.142.264.155.251.171.238.185.225.2.213.221.2.238.184.256.168.276.153.294.136.316.12.334.1.359.085.379.067.4.048.427.03.449.008.475-.008.483-.032.459-.048.433-.067.411-.086.385-.105.364-.12.34-.137.32-.155.3-.169.28-.185.26-.2.241-.216.224-.229.206-.241.189-.254.174-.267.158-.278.142-.591.245-.633.19-.671.145-.7.106-.733.069-.759.037-.781.01h-1.134Zm2.846,39.065h4.866v1.019h-1.774v4.934h-1.251v-4.934H351.7Zm.465,9.868h1.245v5.949h-1.245Zm3.416-79.357h3.491v1.037H356.6v1.388h2.178v1.048H356.6v2.6h-1.019Zm2.427,69.489h1.25v4.118l.013.147.032.16.059.161.1.15.142.134.2.106.125.04.141.03.16.019.181.008.176-.008.157-.019.141-.03.123-.04.2-.106.152-.134.105-.15.064-.161.035-.16.01-.147v-4.118h1.245v4.1l-.006.208-.029.225-.058.235-.1.243-.144.237-.2.23-.123.109-.142.105-.16.1-.179.093-.294.109-.308.078-.318.045-.32.018-.315-.016-.305-.04-.289-.062-.262-.08-.344-.211-.278-.224-.219-.23-.166-.237-.118-.238-.08-.237-.04-.233-.014-.225Zm1.449,14.782-.625-.577.638-.668.685.634.141-.288.1-.316.061-.339.024-.348-.013-.24-.029-.237-.05-.232-.065-.219-.083-.208-.1-.19-.121-.171-.141-.149-.253-.182-.275-.123-.289-.069-.3-.021-.3.021-.292.069-.273.123-.251.182-.139.149-.123.171-.1.19-.085.208-.069.219-.048.232-.032.237-.013.24.013.243.032.238.048.232.069.221.085.208.1.189.123.171.139.145.251.185.273.125.292.072.3.022.177-.01.179-.024.171-.046Zm2.224.809-.644.658-.693-.649-.366.179-.39.125-.406.073-.419.022-.289-.01-.284-.034-.273-.056-.265-.08-.254-.1-.237-.126-.22-.155-.2-.179-.2-.232-.177-.256-.153-.28-.129-.3-.1-.313-.073-.326-.046-.334-.014-.336.014-.334.046-.332.073-.324.1-.313.129-.3.153-.278.177-.259.2-.23.2-.179.22-.155.237-.13.254-.1.265-.08.273-.056.284-.032.289-.011.288.011.281.032.275.056.265.08.251.1.238.13.219.155.2.179.2.23.179.259.153.278.129.3.1.313.074.324.046.332.016.334-.011.288-.034.284-.054.281-.075.272-.094.264-.112.251-.131.237-.147.221Zm2.429-5.725h1.253v4.116l.013.152.03.158.057.16.1.152.144.133.2.105.125.042.142.03.16.019.181.006.176-.006.158-.019.139-.03.125-.042.2-.105.149-.133.105-.152.066-.16.032-.158.011-.152V635.1h1.245v4.1l-.008.208-.029.225-.059.235-.1.241-.144.238-.2.228-.125.109-.141.105-.158.1-.179.094-.291.107-.312.078-.318.046-.32.014-.315-.013-.3-.038-.289-.061-.265-.08-.342-.213-.28-.224-.219-.23-.166-.238-.118-.238-.078-.237-.043-.233-.011-.225Zm.372-79.356H365.5v6.07h-1.018Zm.283,69.49h3.367l.227.021.222.046.214.074.2.1.176.128.153.161.121.192.086.224.067.227.051.28.011.158,0,.171-.022.179-.045.189-.061.177-.073.152-.083.13-.1.112-.23.192-.28.176.182.112.208.149.1.1.083.125.066.153.042.184.011.113.01.155.014.375.011.388,0,.168,0,.136,0,.113.014.091.048.134.075.086.093.062v.221h-1.337l-.115-.27-.05-.286-.011-.253,0-.3.014-.654-.019-.141-.045-.121-.067-.1-.089-.085-.107-.066-.125-.046-.141-.027-.157-.01h-1.465v2.357h-1.25Zm1.25,1.024v1.558h1.7l.117-.014.129-.043.134-.072.125-.1.109-.126.081-.153.045-.181,0-.208-.008-.15-.032-.131-.051-.113-.075-.094-.1-.075-.131-.054-.16-.032-.192-.011Zm4.079-51.361-.561-.11-.561-.074-.558-.04-.551-.01-.55.024-.545.049-.537.078-.531.1-.523.125-.513.147-.5.166-.492.184-.478.2-.467.214-.452.225-.438.235-.42.244-.4.251-.387.254-.366.259-.347.257-.326.257-.305.256-.283.251-.256.245-.233.235-.206.225-.182.214-.152.2-.125.184-.093.166-.064.147.1-.606.075-.6.046-.6.019-.594-.008-.588-.032-.582-.057-.574-.082-.567-.105-.558-.126-.55-.149-.54-.168-.527-.188-.518-.208-.507-.224-.492-.241-.479-.259-.465-.272-.451-.288-.436-.3-.419-.315-.4-.326-.385-.336-.367-.347-.345-.356-.328-.363-.308-.372-.286-.377-.264-.385-.243-.388-.219-.393-.195-.4-.169-.288.478-.256.511-.222.542-.19.57-.155.594-.12.614-.085.633-.051.647-.014.658.022.666.059.671.094.673.134.671.171.666.211.66.249.647.288.633.328.615.369.6.407.57.451.543.491.513.532.479.575.444.618.4.662.36.7.313.749.262.793.211.415.085.423.069.436.056.447.04.46.024.47.008.553-.014.54-.045.529-.073.515-.1.5-.123.489-.147.475-.166.462-.187.446-.206.43-.222.415-.238.4-.248.385-.262.369-.273.352-.281.336-.288.62-.59.283-.3.267-.3.248-.3.229-.3.211-.291.19-.288.173-.278.15-.27.133-.26.112-.246.088-.235.07-.217.046-.2Zm1.21-19.152h3.6v1.037h-2.581v1.388H374.7v1.048h-2.384v1.558h2.7v1.037H371.3Zm.173,69.489h4.4v1.019h-3.153v1.361h2.908v1.019h-2.908v1.531h3.29v1.023h-4.535Zm.2,9.865h4.4v1.019h-3.153v1.361h2.908V638.5h-2.908v1.531h3.295v1.023h-4.54Zm2.531-81.072-.872,1.245h-.463l.478-1.245Z" transform="translate(-309.539 -550.336)" fill="#3e9b34"/>
</svg>
