<svg xmlns="http://www.w3.org/2000/svg" width="396.726" height="396.661" viewBox="0 0 396.726 396.661">
  <g id="Group_17" data-name="Group 17" transform="translate(-805.031 -226.839)" opacity="0.13">
    <path id="Path_118" data-name="Path 118" d="M1003.567,226.844c108.039-.612,198.139,88.55,198.19,198.105.049,108.334-87.89,198.528-198.337,198.55-111.431.023-198.43-91.591-198.389-198.485C805.072,316.226,894.81,226.03,1003.567,226.844Zm196.172,198.439c-.116-107.906-87.6-196.25-196.052-196.486-106.88-.233-196.225,86.523-196.561,195.916C806.8,531.045,892.732,620.967,1002.91,621.4,1110.04,621.815,1199.158,535.125,1199.739,425.283Z" transform="translate(0 0)" fill="#db9b00"/>
    <path id="Path_119" data-name="Path 119" d="M1004.326,617.119c-106.047-.257-190.937-86.93-190.53-191.564.41-105.858,88.189-193.915,197.984-189.976,102.426,3.675,184,88.684,183.611,191.447C1194.991,532.456,1108.576,617.413,1004.326,617.119Zm158.308-88.442c-12.589,13.586-27.714,21.858-46.609,22.717a6.128,6.128,0,0,0-4.114,2.413c-12.1,17.538-28.748,27.019-49.922,28.91-1.758.156-3.656,1.648-5,3-4.826,4.854-8.87,10.664-14.235,14.775-28.947,22.177-69.138,15.7-90.157-14.248a7.918,7.918,0,0,0-6.522-3.818q-30.739-2.656-48.554-28.006a8.91,8.91,0,0,0-5.983-3.07,62.061,62.061,0,0,1-37.026-15.4c-2.615-2.263-5.031-4.758-7.538-7.146,40.263,58.177,95.43,88.774,166.482,85.759C1077.413,611.856,1126.744,581.284,1162.634,528.677Zm-.2-205.236c-41.983-59.566-98.929-90.094-172.32-85.028-60.432,4.171-107.215,33.7-141.8,82.945a1.4,1.4,0,0,0,1.442-.432c11.491-12.042,25.632-18.558,42.126-19.931,3.078-.256,4.837-1.6,6.561-3.986,11.844-16.419,27.822-25.524,48.121-27.072a8.167,8.167,0,0,0,5.383-3.1c25.968-37.638,79.694-37.39,105.465.514a6.534,6.534,0,0,0,4.331,2.572c21.35,1.377,37.826,11.1,50.027,28.519a7.078,7.078,0,0,0,4.028,2.321c5.848,1.318,11.911,1.872,17.608,3.638C1144.863,307.952,1154.273,314.867,1162.432,323.441Zm10.532,18.818c5.566,17.594,4.542,34.522-3.656,51.051-.644,1.3-.1,3.594.6,5.094,8.607,18.4,8.8,36.8.033,55.147-1.315,2.756-.927,4.882.075,7.633a116.594,116.594,0,0,1,5.7,19.253c1.8,10.143.231,20.2-3.667,30.895,9.326-11.36,20.239-51.52,21.13-75.848C1194.381,402.664,1188.193,371.45,1172.964,342.259Zm-337.448,1.457c-13.026,25.853-19.18,53.365-19.559,82.509-.415,31.946,11.149,69.962,20.17,83.216-5.451-17.708-4.387-34.253,3.568-50.311.61-1.231.2-3.376-.445-4.759-8.916-18.991-8.723-37.884.158-56.824a5.687,5.687,0,0,0,.231-4.287C831.9,377.313,830.6,360.914,835.516,343.716ZM1110.429,552.03c-20.475-.613-42.845,14.849-48.306,28.365C1082.7,578.737,1098.456,569.421,1110.429,552.03ZM946.891,580.018c-7.345-15.321-32.5-29.906-47.5-27.84C905.047,566.216,929.317,580.537,946.891,580.018Zm6.125-248.681c18.55,1.031,42.969-14.3,48-28.239C980.651,304.86,964.935,314.054,953.016,331.337Zm102.38.13c-6.8-14.863-33.729-30.438-47.27-27.6C1014.63,318.191,1038.246,332.084,1055.4,331.467Zm60.959,33.708c8.044,16.043,34.435,31.2,48.033,27.777C1152.835,376.122,1137.014,367.077,1116.355,365.174Zm-162.6-92.562c7.016,15.354,32.677,29.728,47.268,27.264C992.348,284.37,968.768,270.769,953.759,272.613ZM898.99,487.161c20.97-1.739,36.628-11.117,48.4-28.248C931.195,457.365,906.478,471.807,898.99,487.161Zm47.442-31.455c-5.866-14.43-31.193-29.429-46.831-27.555C904.924,441.812,930.471,456.843,946.432,455.707Zm108.722-120.792c-14.242-1.729-38.808,11.014-47.117,27.374C1025.717,363.491,1048.59,348.913,1055.155,334.915Zm.763-62.241c-15.786-1.943-43.147,14.176-47.949,28.114C1028.518,299.114,1044.252,289.787,1055.918,272.674Zm-.4,245.2c-8.081-15.664-31.264-29.075-47.493-27.746C1014.612,504.516,1039.032,518.9,1055.521,517.875Zm54.507-92.8c-7.818-15.742-33.462-30.554-48.059-27.952C1073.506,414.062,1089.183,423.245,1110.028,425.075Zm-108.9-183.405c-15.514-1.847-41.92,13.623-47.39,27.54C970.03,270.141,992.324,257.657,1001.131,241.669Zm54.452,338.4c-7.758-15.425-31.5-29.291-47.5-27.965C1014.614,565.934,1035.931,580.138,1055.583,580.068Zm6.87-307.35c6.631,14.682,33.284,30.055,47.353,27.313C1101.069,284.028,1077.982,271.366,1062.453,272.718Zm101.739,248.434c-16.086-1.545-42.22,13.864-47.308,27.659C1132.482,550.253,1155.717,536.79,1164.192,521.151Zm-272.14-96.676c-6.918-15.18-30.342-28.47-47.078-27.729C850.607,410.806,876.891,426.287,892.053,424.475Zm-47.405,34.3c8.286,15.725,32.371,29.623,47.613,27.751C884.15,470.826,861.972,458.509,844.647,458.775Zm54.619-158.446c18.754.878,41.866-14.68,47.218-27.9C929.947,271.568,905.393,286.078,899.266,300.329Zm-6.687,189.542c-18.867.237-42.092,13.966-47.57,27.885C859.912,519.649,884.1,505.6,892.579,489.871Zm61.21,31.485c6.712,14.687,34.734,30.723,47.164,26.99C991.72,531.521,967.554,519.626,953.789,521.355Zm108.492-189.873c17.774.421,41.663-13.744,47.411-27.9C1093.837,302.244,1069.436,316.469,1062.281,331.482Zm54.215-28.036c8.046,15.658,32.3,29.708,47.531,27.827C1156.962,317,1135.612,303.326,1116.5,303.446ZM946.9,396.685c-18.929-.429-41.564,14.224-47.334,27.862C915.22,425.89,939.166,411.939,946.9,396.685Zm169.842,89.931c16.234,1.349,40.621-12.821,47.309-27.867C1147.454,457.93,1123.516,472.031,1116.743,486.616ZM953.551,583.062c6.875,14.841,31.995,29.517,47.391,27.933C995.668,597.141,971.749,582.935,953.551,583.062Zm156.575-220.116c-8.865-16.931-33.314-29.965-48.082-27.845C1073.608,352.006,1089.31,361.12,1110.126,362.946ZM1001.658,489.988c-18.991-.707-41.926,14.074-48.044,28.309C974.085,516.5,989.791,507.3,1001.658,489.988Zm-156.7-155.24c7.163,14.945,32.818,29.787,47.209,27.561C886.281,348.242,861.081,333.4,844.954,334.748Zm108.719,0c8.009,15.311,30.145,28.542,47.219,27.607C994.752,348.1,969.658,333.289,953.672,334.745Zm101.573-65.519c-7.02-15.651-33.487-30.015-47.156-27.176C1016.854,257.549,1040.394,271.116,1055.246,269.226ZM1008,610.962c15.228,1.835,43.327-14.786,47.155-27.892C1037.421,582.862,1014.018,596.7,1008,610.962Zm-7.084-124.292c-6.957-14.911-30.9-29.069-47.3-27.555C960.79,473.972,983.834,487.4,1000.917,486.669Zm108.783-.078c-7.01-14.918-34.422-30.762-47.391-27.391C1070.186,474.349,1093.717,487.95,1109.7,486.592Zm55.131,31.2c-12.011-17.209-27.6-26.747-48.392-28.235C1124.178,505.128,1148.174,519.221,1164.832,517.8Zm-218.215-.06c-6.224-14.477-31.663-29.325-47.169-27.53C907.066,505.584,930.25,518.732,946.616,517.736Zm163.208-152.02c-18.62-.755-41.473,14.244-47.24,27.767C1079.815,394.126,1102.651,380.7,1109.824,365.717Zm-108.023-.144c-17.615-.753-43.829,14.831-48.018,28.334C974.278,392.273,989.87,382.883,1001.8,365.573Zm114.768-3.056c19.37.6,42.182-15.037,47.208-27.841C1147.831,333.452,1124.565,347.048,1116.569,362.517ZM844.881,393.546c18.367.124,42.085-13.961,47.441-27.954C876.284,364.457,851.826,378.754,844.881,393.546ZM1116.752,424.5c17.363,1.166,41.2-13.672,47.194-27.831C1146.583,396.268,1123.276,410.013,1116.752,424.5Zm-115.184-.094c-11.811-17.159-27.528-26.336-48.02-28.1C959.344,410.868,985.776,426.37,1001.568,424.41ZM1055.43,521.1c-18.086-.865-41.071,14-46.939,27.663C1023.962,550.127,1047.706,536.273,1055.43,521.1ZM946.844,331.457c-7.7-15.272-32.749-29.781-47.467-27.772C905.19,317.8,929.751,332.278,946.844,331.457Zm-54.38,217.187c-9.341-16.69-32.965-29.144-47.335-27.211C851.655,535.8,877.185,550.614,892.463,548.645Zm-47.545-93.081c15.529,1.643,41.77-13.744,47.086-27.388C877.56,425.9,852.28,440.469,844.918,455.563Zm108.5,124.424c17.4.637,40.957-13.216,47.514-27.744C984.636,551.069,961.856,564.112,953.422,579.987ZM892.178,303.557c-15.888-1.3-42.156,14.223-47.076,27.821C861.2,332.685,887.278,317.271,892.178,303.557Zm6.5,245.157c16.767,1.463,43.707-14.488,47.834-28.055C926.087,522.235,910.576,531.636,898.678,548.713Zm108.935-124.447c17.179,1.916,42.771-14.211,47.51-27.959C1034.864,398.137,1019.225,407.32,1007.613,424.267Zm.356-58.609c5.894,14.35,32.693,29.945,47.269,27.5C1048.134,378.5,1023.276,364.04,1007.969,365.658ZM1164.8,456.134c-11.309-19.2-36.295-30.28-48.278-27.613C1128.1,445.3,1143.8,454.424,1164.8,456.134Zm-102.372,64.95c6.814,14.986,35.3,31.259,47.238,27.208C1101,532.873,1078.857,520.011,1062.425,521.084Zm-163.006-158.8c17.8,1.351,41.316-14.163,46.963-27.558C930.634,333.356,905.8,347.927,899.419,362.282Zm47.143,31.031c-6.267-14.233-32.643-29.605-47.238-27.533C905.461,380.183,930.741,394.917,946.561,393.314Zm60.919,93.179c16.609,1.594,42.237-13.458,48-28.088C1035.05,460.233,1019.3,469.343,1007.48,486.492ZM953,455.468c18.464,1.364,42.592-14.4,47.768-27.921C980.291,429.017,964.928,438.621,953,455.468Zm109.376,62.469c17.132.569,41.566-13.959,47.216-27.85C1093.245,489.024,1069.853,502.7,1062.377,517.937Zm47.435-89.8c-15.542-1.939-39.338,11.825-47.432,27.2C1077.032,456.952,1100.222,445.039,1109.811,428.142Zm-54.517,27.282c-8.464-17.039-35.281-29.839-47.057-26.948C1016.485,443.807,1039.323,456.827,1055.294,455.424ZM944.814,404.4a70.009,70.009,0,0,1-35.493,21.814A71.719,71.719,0,0,1,944.781,447.8,70.318,70.318,0,0,1,944.814,404.4Zm-98.409-.31a70.815,70.815,0,0,1,.578,43.764c9.6-10.872,21.4-17.916,36.338-21.565C864.849,420.332,863.46,419.49,846.405,404.087Zm63.064,84.268c14.179,3.678,25.707,11.13,35.389,21.8a70.307,70.307,0,0,1-.011-43.654A70.33,70.33,0,0,1,909.469,488.355Zm-27.8.3c-6.29-2.908-12.935-5.267-18.8-8.889s-10.958-8.509-16.205-12.694c4.774,13.988,4.634,28.525-.243,43.515C858.672,498.117,864.457,494.108,881.673,488.659Zm8.774-9.58a71.485,71.485,0,0,1-.036-43.622c-9.524,10.928-21.312,17.918-35.126,21.868A70.937,70.937,0,0,1,890.447,479.079Zm-.059,18.644c-9.449,10.787-21.27,17.661-34.936,21.776a71.158,71.158,0,0,1,35,21.614A70.829,70.829,0,0,1,890.388,497.723Zm108.6-61.92a72.068,72.068,0,0,1-35.038,21.5,72.473,72.473,0,0,1,35.131,21.487A70.387,70.387,0,0,1,998.984,435.8ZM1099.7,488.362a71.686,71.686,0,0,1-35.258-21.4,70.53,70.53,0,0,1-.219,43.316A71.113,71.113,0,0,1,1099.7,488.362ZM890.413,373.47a70.9,70.9,0,0,1-35.246,21.652A71.283,71.283,0,0,1,890.5,417.008,70.377,70.377,0,0,1,890.413,373.47ZM1154.006,395.1c-14.01-3.544-25.481-10.931-35.295-21.288a68.657,68.657,0,0,1-.134,43A72.46,72.46,0,0,1,1154.006,395.1Zm-244.44-93.585c6.5,2.963,13.164,5.273,19.03,8.878s10.961,8.517,16.345,12.818a68.182,68.182,0,0,1-.148-42.983A66.679,66.679,0,0,1,909.566,301.513Zm154.68,40.975a68.838,68.838,0,0,1,.123,43.074,71.991,71.991,0,0,1,35.277-21.5A71.71,71.71,0,0,1,1064.245,342.488Zm54.338,93.176c4.765,14.467,4.549,28.76.06,43.264a72.388,72.388,0,0,1,35.18-21.71A71.261,71.261,0,0,1,1118.583,435.664Zm-65.3-155.075a71.394,71.394,0,0,1-35.212,21.419c14.029,3.589,25.55,10.881,35.3,21.425A69.855,69.855,0,0,1,1053.282,280.589ZM936.376,457.721c-6.594-3-13.1-5.261-18.857-8.767s-10.75-8.254-16.289-12.624a69.307,69.307,0,0,1-.2,42.962A67.321,67.321,0,0,1,936.376,457.721Zm182.288,83.271a72.1,72.1,0,0,1,35.1-21.632c-13.958-3.634-25.41-11.026-35.148-21.433A68.863,68.863,0,0,1,1118.664,540.991ZM963.753,395.15a71.02,71.02,0,0,1,35.489,21.791c-4.87-14.579-4.614-29-.072-43.58A70.543,70.543,0,0,1,963.753,395.15Zm-19.109-52.572a71.509,71.509,0,0,1-35.21,21.523,70.486,70.486,0,0,1,35.426,21.827C940.169,371.437,940.283,357.148,944.645,342.577ZM1064.8,447.842c9.295-10.875,21.05-17.916,34.93-21.671a66.966,66.966,0,0,1-34.917-21.516c.974,7.189,2.7,14.325,2.695,21.461C1067.5,433.289,1065.788,440.461,1064.8,447.842Zm102.743-48.621c-9.532,13.787-9.263,42.054.075,54.23C1176.41,437.464,1176.377,413.148,1167.539,399.221ZM1064.027,280.789c4.915,14.138,4.77,28.346.351,42.71a68.316,68.316,0,0,1,35.072-21.159c-6.252-2.8-12.811-5.021-18.581-8.533C1074.955,290.207,1069.811,285.341,1064.027,280.789ZM890.27,354.523a71.256,71.256,0,0,1,.2-43.346c-9.592,11.019-21.487,18.084-35.565,21.875A70.184,70.184,0,0,1,890.27,354.523Zm119.768,186.512a71.885,71.885,0,0,1,35.149-21.6A72.435,72.435,0,0,1,1010,497.964,70.036,70.036,0,0,1,1010.039,541.035Zm-73.81-22.058a67.818,67.818,0,0,1-35.21-21.524,68.368,68.368,0,0,1,.144,43.014c5.612-4.463,10.5-9.163,16.144-12.614C923.087,524.321,929.614,522.013,936.228,518.977Zm182.463-207.353a68.689,68.689,0,0,1-.1,43.032,71.148,71.148,0,0,1,35.472-21.617A71.763,71.763,0,0,1,1118.692,311.624Zm-119.4-63.188c-9.906,11.842-21.708,18.541-35.317,22.58,13.974,3.558,25.338,10.947,34.973,21.254C994.62,273.911,994.614,271.817,999.289,248.436Zm10.752,63.19a69.918,69.918,0,0,1,.067,42.772,71.078,71.078,0,0,1,35.366-21.4A70.774,70.774,0,0,1,1010.041,311.626Zm.251,104.9c9.448-10.725,21.262-17.527,35-21.462-14-3.519-25.471-10.81-35.432-22.06C1015.284,397.095,1013.8,399.149,1010.292,416.526ZM901.176,374.183a69.223,69.223,0,0,1-.109,42.986,66.84,66.84,0,0,1,35.309-21.626c-6.443-2.905-12.945-5.139-18.687-8.624C911.9,383.4,906.865,378.648,901.176,374.183Zm-.1-63.078c4.9,14.768,4.553,29.365-.052,44.085a68.818,68.818,0,0,1,35.8-22.209A68.381,68.381,0,0,1,901.074,311.1Zm-54.113,74.59c9.527-10.908,21.4-17.663,35.115-21.646a72.134,72.134,0,0,1-34.794-20.939C851.2,357.474,851.351,371.529,846.961,385.695ZM963.584,581.626c13.836,3.262,25.065,10.6,34.875,20.56-4.159-14.3-3.479-28.256.748-42.354A71.655,71.655,0,0,1,963.584,581.626Zm46.489,21.19a71.889,71.889,0,0,1,35.371-21.291c-14.039-3.545-25.624-10.882-35.44-21.425C1014.38,574.374,1014.793,588.425,1010.073,602.816Zm-54.681-260.7a68.551,68.551,0,0,1,.09,43.814c9.6-11.039,21.539-17.963,35.445-21.886A69.718,69.718,0,0,1,955.392,342.115Zm62.852,208.367a71.666,71.666,0,0,1,35.222,21.564,68.737,68.737,0,0,1-.055-43.1A71.732,71.732,0,0,1,1018.244,550.482Zm35.483-165.194c-4.949-14.109-4.807-28.32-.376-42.67a68.4,68.4,0,0,1-35.01,21.07c6.46,2.93,13,5.187,18.77,8.713C1042.974,375.987,1048.071,380.824,1053.727,385.288Zm-54.633,155.7a70.761,70.761,0,0,1-.121-43.047,71.977,71.977,0,0,1-35.029,21.514A71.559,71.559,0,0,1,999.094,540.991Zm127.663-176.871a71.615,71.615,0,0,1,35.286,21.332,69.049,69.049,0,0,1,.017-42.856A70.908,70.908,0,0,1,1126.757,364.121ZM990.738,550.9c-6.521-2.961-13.069-5.231-18.85-8.758s-10.8-8.31-16.5-12.822a66.6,66.6,0,0,1,.282,42.6A67.854,67.854,0,0,1,990.738,550.9Zm116.918-196.574a69.334,69.334,0,0,1,.019-42.613c-9.8,10.474-21.321,17.743-35.341,21.316A71.864,71.864,0,0,1,1107.656,354.327Zm-54.312,93.265a69.477,69.477,0,0,1,.053-42.9,71.358,71.358,0,0,1-35.3,21.544A72.247,72.247,0,0,1,1053.344,447.593ZM991.05,426.2a70.3,70.3,0,0,1-35.573-21.74,70.054,70.054,0,0,1,.329,43.107A70.549,70.549,0,0,1,991.05,426.2Zm18.913,52.63a72.829,72.829,0,0,1,34.984-21.585,71.946,71.946,0,0,1-35-21.51A69.087,69.087,0,0,1,1009.964,478.828Zm-100.2,71.634a71.44,71.44,0,0,1,34.929,21.331,70.846,70.846,0,0,1,.028-42.938A71.852,71.852,0,0,1,909.76,550.462ZM1107.6,373.931a72.011,72.011,0,0,1-35.157,21.228c13.957,3.592,25.384,10.9,35.159,21.219A70.256,70.256,0,0,1,1107.6,373.931Zm-34.734,145.476a72.951,72.951,0,0,1,34.926,21.519c-4.686-14.372-4.513-28.562-.087-42.956A72.339,72.339,0,0,1,1072.865,519.407Zm-27.8-248.533a73.274,73.274,0,0,1-35.094-21.3,69.337,69.337,0,0,1,.193,42.734C1019.689,281.561,1031.422,274.848,1045.068,270.873Zm81.95,217.46a72.15,72.15,0,0,1,34.885,21.225,70.936,70.936,0,0,1-.068-42.29A72.427,72.427,0,0,1,1127.018,488.333Zm-73.3,21.215c-4.938-14.094-4.862-28.377-.26-42.816a68.2,68.2,0,0,1-35.146,21.227c6.429,2.917,12.994,5.183,18.782,8.721C1042.993,500.284,1048.125,505.138,1053.721,509.548ZM955.464,323.717a70.934,70.934,0,0,1,35.477-21.781,71.2,71.2,0,0,1-35.168-21.279A69.108,69.108,0,0,1,955.464,323.717Zm.706,186.086a68.761,68.761,0,0,1,34.747-21.468,68.368,68.368,0,0,1-34.755-21.41c.99,7.272,2.694,14.321,2.7,21.371S957.169,502.4,956.171,509.8Zm7.408-176.8a72.69,72.69,0,0,1,35.527,21.514,69.445,69.445,0,0,1-.06-42.838A70.32,70.32,0,0,1,963.579,333.008Zm144.092,102.88a72.981,72.981,0,0,1-34.871,21.426,73.409,73.409,0,0,1,34.858,21.263A70.007,70.007,0,0,1,1107.671,435.888ZM1064.593,571.3a71.136,71.136,0,0,1,34.693-20.9c-13.793-3.668-25.211-10.964-34.922-21.284A69.367,69.367,0,0,1,1064.593,571.3Zm-6.053-296.5c-8.4,18.346-8.457,36.1.112,54.351C1067.6,314.973,1067.526,287.7,1058.54,274.8ZM1004.4,243.986c-8.769,15.274-8.591,41.234.2,53.657C1013.181,284.612,1013.48,258.867,1004.4,243.986ZM1161.135,446.45c-4.128-13.775-3.743-27.326.291-40.951a71.3,71.3,0,0,1-34.753,20.75C1140.174,429.627,1151.37,436.6,1161.135,446.45Zm-156.714-24.475c9.251-14.619,8.532-41.7-.16-53.481C995.718,384.362,995.717,406.578,1004.421,421.975Zm54.69,39.037c-9.9,16.741-8.124,43.644.3,54.091C1067.488,497.144,1067.611,479.487,1059.111,461.012Zm-54.7,31.9c-9.548,14.879-7.84,43.455.5,52.932C1013.828,529.815,1012.668,504.866,1004.406,492.912Zm.225,62.535c-8.463,12.25-9.365,39.634-.29,52.974C1013.366,595.163,1013.344,568.359,1004.632,555.448Zm-.236-249.2c-9.479,16.3-7.808,42.568.339,53.31C1013.206,346.24,1013.155,318.711,1004.4,306.245Zm54.113,30.78c-8.317,18.3-8.414,35.974.009,54.017C1067.649,377.791,1067.669,350.553,1058.509,337.025Zm.255,62.791c-8.86,13.82-8.537,40.064.175,52.926C1067.939,439.035,1067.35,411.4,1058.764,399.816Zm54.459-39.007c8.81-18.983,8.684-36.763,0-55.614C1104.473,324.046,1104.472,341.8,1113.222,360.809Zm-54.2,216.425c8.974-15.444,8.2-41.064-.226-53.232C1050.08,537.5,1050.082,563.007,1059.019,577.234Zm54.276-84.471c-8.847,12.137-8.8,41.887.077,53.372C1122.01,531.561,1121.974,506.282,1113.3,492.762Zm-109.191-8.6c9.528-13.306,9-42.384-.134-53.617C995.821,448.474,995.769,466.134,1004.1,484.163Zm163.834,31.309c8.357-18.407,8.367-36.112-.021-54.154C1158.831,473.172,1158.773,502.958,1167.938,515.472ZM949.855,391.2c9.1-13.377,8.9-43.658-.14-53.96C941.458,355.218,941.4,372.91,949.855,391.2Zm-108.331-.249c8.861-15.242,8.643-42.6-.267-53.367C832.543,352.059,832.806,376.889,841.525,390.954ZM949.816,515.466c9.1-13.253,8.981-42.331-.037-54.047C941.4,479.478,941.486,497.144,949.816,515.466ZM895.737,359.712c9.265-14.119,8.568-42.262-.213-53.113C887.086,320.753,887.092,345.359,895.737,359.712ZM950.066,275.3c-8.725,13.86-8.673,40.312.1,53.21C958.957,316.363,958.9,287.064,950.066,275.3Zm-.28,248.095c-8.256,18.35-8.421,36.006.026,54.032C958.926,564.353,959.017,537.257,949.786,523.393Zm218.069-131.982c8.41-18.463,8.52-36.235.012-54.428C1158.828,349.966,1158.785,377.532,1167.855,391.411Zm-326.3,8.235c-9.325,13.047-8.592,42.355.216,53.031C850.281,437.527,850.181,412.956,841.556,399.645Zm271.981-31.673c-9.152,13.821-9.026,42.9.1,54.118C1121.95,404.065,1121.928,386.344,1113.536,367.972ZM841.775,461.244c-9.172,13.609-8.994,43.268.146,53.9C850.256,497.182,850.179,479.514,841.775,461.244Zm54.012,22.787c8.8-13.058,8.7-41.634.007-53.172C887.079,442.779,886.992,469.6,895.787,484.031Zm.049-115.549c-8.78,13.044-8.743,40.883-.091,53.181C904.273,409.113,904.923,383.392,895.836,368.482Zm217.74,61.708c-9.3,14.255-9.029,40.741.033,54.133C1121.873,466.254,1122,448.557,1113.577,430.191ZM896.065,492.177c-10.044,16.452-7.958,44.095.251,53.949C904.6,528.163,904.493,510.526,896.065,492.177Zm53.684-92.806c-8.347,18.067-8.28,35.735.032,53.774C958.927,440.375,959.006,412.074,949.75,399.371Z" transform="translate(-1.224 -1.203)" fill="#db9b00"/>
  </g>
</svg>
