<svg xmlns="http://www.w3.org/2000/svg" width="81.31" height="69.969" viewBox="0 0 81.31 69.969"><defs><style>.a{opacity:0.41;}.b{fill:#fff;}</style></defs><g class="a" transform="translate(-165.016 -98.678)"><path class="b" d="M252.465,171.824s12.181-3.685,18.59-9.614c0,0,33.169-10.9,14.742-57.364,0,0-37.014,17.465-20.67,57.043,0,0,9.934-8.172,15.222-27.881C280.349,134.008,277.778,161.088,252.465,171.824Z" transform="translate(-45.044 -3.177)"/><path class="b" d="M203.922,171.824s-12.181-3.685-18.591-9.614c0,0-33.169-10.9-14.742-57.364,0,0,37.015,17.465,20.67,57.043,0,0-9.934-8.172-15.222-27.881C176.038,134.008,178.609,161.088,203.922,171.824Z" transform="translate(0 -3.177)"/><circle class="b" cx="6.73" cy="6.73" r="6.73" transform="translate(200.053 100.707)"/><path class="b" d="M180.435,98.678s35.465,15.917,26.492,64.842C206.927,163.52,231.5,113.74,180.435,98.678Z" transform="translate(-7.942 0)"/><path class="b" d="M257.059,163.52s-24.569-49.78,26.492-64.842c0,0-35.465,15.917-26.492,64.842" transform="translate(-44.367 0)"/></g></svg>