<svg xmlns="http://www.w3.org/2000/svg" xmlns:xlink="http://www.w3.org/1999/xlink" width="86" height="86" viewBox="0 0 86 86"><defs><clipPath id="a"><rect width="50.128" height="68" fill="none"/></clipPath></defs><g transform="translate(-15619 1076)"><g transform="translate(15637 -1067)"><g clip-path="url(#a)"><path d="M49.321,0a1.584,1.584,0,0,1,.752,1.431,7.618,7.618,0,0,1-1.388,5.436A3.592,3.592,0,0,0,48.1,9.117q.027,25.085.03,50.17a5.886,5.886,0,0,0,.378,1.5,1.134,1.134,0,0,0,.185.351,7.6,7.6,0,0,1,1.389,5.437A1.593,1.593,0,0,1,49.321,68H.806a1.578,1.578,0,0,1-.757-1.429,7.628,7.628,0,0,1,1.388-5.437,3.6,3.6,0,0,0,.59-2.248Q2,33.832,2,8.779a6.546,6.546,0,0,0-.407-1.624.928.928,0,0,0-.157-.291A7.6,7.6,0,0,1,.045,1.426,1.57,1.57,0,0,1,.806,0ZM4.181,48.244V59.276c.814,0,1.584-.029,2.352.009a1.054,1.054,0,0,1,.016,2.108c-.176.015-.353.008-.53.011-.749.013-1.651-.228-2.2.108-.579.351-.79,1.279-1.222,1.914a3.446,3.446,0,0,0-.343,2.414H48.027a11.991,11.991,0,0,0-.349-2.087,9.139,9.139,0,0,0-1.045-1.915,1.055,1.055,0,0,0-.708-.415c-.747-.057-1.5,0-2.251-.035a1.016,1.016,0,0,1-1.043-.987c-.035-.647.43-1.1,1.193-1.127.7-.021,1.4,0,2.112,0V8.73c-.759,0-1.465.021-2.169-.006A1.067,1.067,0,0,1,42.63,7.609a1.05,1.05,0,0,1,1.169-1c.729-.013,1.459.023,2.186-.021a.893.893,0,0,0,.609-.356c.369-.575.644-1.211,1.014-1.786A3.688,3.688,0,0,0,47.9,2.17H2.268a3.057,3.057,0,0,0,.389,2.507,15.9,15.9,0,0,0,.846,1.5,1.072,1.072,0,0,0,.708.412c.792.054,1.59,0,2.384.034a1.023,1.023,0,0,1,.933,1.413,1.127,1.127,0,0,1-1.171.7H4.176V19.756H33.221c1.362,0,1.633.268,1.633,1.618q0,12.615,0,25.23c0,1.366-.268,1.64-1.612,1.64H4.181M4.2,46.08H32.68V21.919H4.2Z" transform="translate(0)" fill="#ae5c28"/><path d="M151.984,37.308c.551,0,1.1-.02,1.652.005a1.019,1.019,0,0,1,1.03,1,1.007,1.007,0,0,1-.946,1.082c-1.187.049-2.378.047-3.565,0a1.031,1.031,0,0,1-.971-1.066,1.063,1.063,0,0,1,1.083-1.024c.044,0,.088,0,.132,0h1.586v0" transform="translate(-122.766 -30.695)" fill="#ae5c28"/><path d="M151.878,336.818c-.551,0-1.1.023-1.651-.006a1.042,1.042,0,0,1-1.036-1,1.019,1.019,0,0,1,.948-1.083c1.187-.049,2.378-.049,3.565,0a1.016,1.016,0,0,1,.969,1.064,1.038,1.038,0,0,1-1.077,1.025c-.571.026-1.145.005-1.718.005v0" transform="translate(-122.77 -275.424)" fill="#ae5c28"/><path d="M197.738,37.3c.551,0,1.1-.018,1.652.006a1.041,1.041,0,0,1,.1,2.078c-1.187.049-2.378.048-3.565.005a1.021,1.021,0,0,1-.975-1.06,1.041,1.041,0,0,1,1.075-1.025c.572-.021,1.145,0,1.718,0" transform="translate(-160.424 -30.693)" fill="#ae5c28"/><path d="M197.677,336.786c-.551,0-1.1.02-1.652-.005a1.051,1.051,0,1,1-.043-2.1c1.144-.038,2.291-.038,3.435,0a1.042,1.042,0,0,1,1.014,1.095,1.069,1.069,0,0,1-1.1,1.009c-.044,0-.088,0-.132,0h-1.52v-.005" transform="translate(-160.424 -275.39)" fill="#ae5c28"/><path d="M106.213,37.3c.55,0,1.1-.016,1.651.005a1.045,1.045,0,0,1,.083,2.087c-1.165.047-2.334.045-3.5,0a1.038,1.038,0,0,1-1-1.1,1.056,1.056,0,0,1,1.112-.988c.55-.017,1.1,0,1.651,0" transform="translate(-85.129 -30.693)" fill="#ae5c28"/><path d="M106.209,336.8c-.573,0-1.146.022-1.717-.007a1.046,1.046,0,0,1-.039-2.091c1.165-.042,2.334-.043,3.5,0a.993.993,0,0,1,.967,1.058,1.017,1.017,0,0,1-1.059,1.033c-.549.027-1.1.005-1.651,0" transform="translate(-85.129 -275.405)" fill="#ae5c28"/><path d="M60.435,336.8c-.551,0-1.1.022-1.651-.006a1.04,1.04,0,0,1-1.057-1.041,1.024,1.024,0,0,1,.984-1.05c1.165-.043,2.334-.047,3.5,0a1.047,1.047,0,0,1-.058,2.092c-.571.028-1.145.006-1.717.006" transform="translate(-47.504 -275.401)" fill="#ae5c28"/><path d="M60.5,37.3c.55,0,1.1-.018,1.651,0a.993.993,0,0,1,1.035.979.969.969,0,0,1-.912,1.1c-1.208.052-2.421.05-3.629,0a1,1,0,0,1-.917-1.1,1.032,1.032,0,0,1,1.055-.972c.572-.022,1.145,0,1.717,0" transform="translate(-47.504 -30.693)" fill="#ae5c28"/></g></g><rect width="86" height="86" transform="translate(15619 -1076)" fill="none"/></g></svg>