<svg xmlns="http://www.w3.org/2000/svg" xmlns:xlink="http://www.w3.org/1999/xlink" width="86" height="86" viewBox="0 0 86 86"><defs><clipPath id="a"><rect width="85.026" height="60.113" fill="none"/></clipPath></defs><g transform="translate(-14926 1076)"><g transform="translate(14926 -1063)"><g clip-path="url(#a)"><path d="M85.027,48.828A12.888,12.888,0,0,1,84,50.678a3.872,3.872,0,0,1-3.108,1.5c-.3,0-.6,0-.87,0-1.588,5.4-4.774,8.082-9.375,7.932a9.072,9.072,0,0,1-8.625-7.927H45.624a4.9,4.9,0,0,1-.828-.029,1.115,1.115,0,0,1-.994-1.061,1.1,1.1,0,0,1,.73-1.257,3.169,3.169,0,0,1,1.057-.138c3.1-.01,6.2-.006,9.3-.006h.947v-12.8H2.554v2.16c1,0,2.036-.026,3.073.006a3.428,3.428,0,0,1,3.336,3.983,3.353,3.353,0,0,1-3.13,2.828c-1.074.045-2.151.009-3.213.009A3.4,3.4,0,0,0,5.68,49.636c2.125.114,4.26.056,6.391.026.184,0,.48-.329.527-.548,1.561-7.263,10.231-8.866,14.9-4.676,1.356,1.216,2.055,2.491,2.817,5.251H39.4a5.464,5.464,0,0,1,.663.015,1.243,1.243,0,0,1,1.192,1.253,1.187,1.187,0,0,1-1.291,1.213c-2.657.018-5.314.009-7.971.01-1.549,0-1.549,0-1.975,1.467a8.993,8.993,0,0,1-17.412-.586c-.058-.27-.122-.538-.2-.882-2.049,0-4.092.016-6.134,0a6.124,6.124,0,0,1-6.2-5.254A7.923,7.923,0,0,1,0,45.6Q0,24.464,0,3.329A2.964,2.964,0,0,1,3.323,0Q6.437,0,9.55,0c.988,0,1.548.442,1.572,1.208.025.794-.561,1.277-1.58,1.28-2.076.006-4.152.016-6.227-.007-.6-.007-.834.193-.833.814Q2.5,18.62,2.5,33.942a2.685,2.685,0,0,0,.043.312h53.3c.016-.29.043-.559.043-.828q0-14.906,0-29.813c0-1.118,0-1.12-1.1-1.12H15.513c-1.276,0-1.875-.392-1.886-1.229S14.228,0,15.483,0Q35.244,0,55.006,0c2.246,0,3.36,1.11,3.368,3.367.008,2.516,0,5.033,0,7.631,1.014,0,1.97-.007,2.927,0,1.008.01,1.616.514,1.585,1.294-.029.758-.587,1.182-1.586,1.193q-1,.012-1.993,0c-.61-.008-.937.263-.93.892,0,.166,0,.332,0,.5q0,16.9,0,33.8v.953h3.656c1.283-4.795,4.311-7.647,9.424-7.444,4.655.185,7.332,3.034,8.481,7.427,1.853.25,2.6-.386,2.6-2.225q0-8.471,0-16.941v-.915c-.365-.017-.682-.044-1-.044q-7.265,0-14.53,0c-2.658,0-3.888-1.248-3.89-3.932,0-2.076-.007-4.152,0-6.228a3.3,3.3,0,0,1,3.619-3.594c1.743,0,3.487,0,5.231-.009a.561.561,0,0,0,.152-.044A3.266,3.266,0,0,0,69.142,13.5c-.8-.025-1.606.01-2.408-.014a1.2,1.2,0,0,1-1.326-1.178,1.212,1.212,0,0,1,1.306-1.294c.94-.03,1.884-.04,2.822.019a5.194,5.194,0,0,1,3.8,1.959c3.461,4.177,6.94,8.338,10.356,12.551a14.477,14.477,0,0,1,1.34,2.525ZM81.564,26.955a3.066,3.066,0,0,0-.189-.327c-2.217-2.686-4.427-5.377-6.671-8.04a1.353,1.353,0,0,0-.928-.348c-2.322-.029-4.644-.018-6.965-.014-1.019,0-1.2.184-1.206,1.214q-.009,3.11,0,6.22c0,1.153.185,1.334,1.359,1.335q6.882,0,13.765,0c.242,0,.484-.023.835-.04m-60.187,17.7a6.219,6.219,0,0,0-6.484,6.39,6.5,6.5,0,1,0,13,0,6.287,6.287,0,0,0-6.517-6.394M70.933,57.63a6.558,6.558,0,0,0,6.583-6.5,6.526,6.526,0,0,0-13.051-.041,6.6,6.6,0,0,0,6.468,6.544M2.527,43.372a31.042,31.042,0,0,0,3.109-.039,1.277,1.277,0,0,0,.82-.811.762.762,0,0,0-.775-.958c-1.037-.054-2.08-.016-3.154-.016Z" transform="translate(0 0)" fill="#ae5c28"/><path d="M288.47,144.708c-.661,0-1.323.023-1.983,0a1.224,1.224,0,0,1-1.255-1.252,1.2,1.2,0,0,1,1.209-1.214c1.4-.034,2.81-.036,4.213,0a1.223,1.223,0,0,1,1.186,1.247,1.238,1.238,0,0,1-1.222,1.212c-.715.033-1.432.007-2.148.008" transform="translate(-221.962 -110.666)" fill="#ae5c28"/><path d="M73.975,213.027a4.986,4.986,0,0,1,9.973-.008,5.048,5.048,0,0,1-5.036,4.99,5,5,0,0,1-4.937-4.982m4.935-2.5a2.448,2.448,0,0,0-2.445,2.483,2.5,2.5,0,0,0,2.526,2.508,2.557,2.557,0,0,0,2.469-2.507,2.5,2.5,0,0,0-2.55-2.483" transform="translate(-57.566 -161.895)" fill="#ae5c28"/><path d="M302.577,208.069a4.854,4.854,0,0,1,4.979,4.98,4.992,4.992,0,0,1-9.985-.024,4.862,4.862,0,0,1,5.006-4.956m2.487,4.96a2.5,2.5,0,0,0-5.006-.04,2.5,2.5,0,1,0,5.006.04" transform="translate(-231.564 -161.916)" fill="#ae5c28"/></g></g><rect width="86" height="86" transform="translate(14926 -1076)" fill="none"/></g></svg>