<svg xmlns="http://www.w3.org/2000/svg" xmlns:xlink="http://www.w3.org/1999/xlink" width="86" height="86" viewBox="0 0 86 86"><defs><clipPath id="a"><rect width="85" height="68.035" fill="none"/></clipPath></defs><g transform="translate(-15282 1076)"><g transform="translate(15283 -1067)"><g clip-path="url(#a)"><path d="M85,64.048c-.065.18-.136.358-.194.54a4.777,4.777,0,0,1-4.591,3.431q-9.585.029-19.171,0a4.732,4.732,0,0,1-4.778-4.809c-.025-2.213-.006-4.426-.007-6.64,0-.3,0-.6,0-1H55.3q-19.254,0-38.508.006a7.043,7.043,0,0,0-1.31.141,4.8,4.8,0,0,1-5.6-3.3Q4.981,37.759.12,23.092A1.332,1.332,0,0,0,0,22.875v-1.66c.614-2.252,2.181-3.362,4.347-4.078Q29.547,8.806,54.706.35C57.772-.673,60.259.576,61.3,3.663c1.213,3.613,2.431,7.224,3.611,10.847a.95.95,0,0,0,1.1.8c1.437-.051,2.876-.033,4.314-.012a4.787,4.787,0,0,1,5.078,5.11c.011,3.209.017,6.417-.011,9.626a1.307,1.307,0,0,0,.668,1.269,10.912,10.912,0,0,1,5.109,9.254c.032,1.023-.009,2.047.021,3.07.006.206.135.548.276.589A5.208,5.208,0,0,1,85,47.944ZM56.151,53.63a1.492,1.492,0,0,0,.093-.281c.007-1.466,0-2.932.018-4.4a4.672,4.672,0,0,1,3.247-4.615c.517-.18.593-.44.587-.9-.018-1.189-.03-2.38.008-3.568a10.669,10.669,0,0,1,12.13-10.048c.4.062.8.132,1.279.212v-.9q0-4.273,0-8.547c0-2.253-1.112-3.356-3.365-3.356h-53.6c-2.377,0-3.427,1.056-3.427,3.447q0,14.729,0,29.458c0,2.464,1.017,3.494,3.455,3.495h39.58ZM70.6,66.1c3.1,0,6.2.008,9.294,0A2.863,2.863,0,0,0,83.073,62.9q.017-6.887,0-13.775a2.883,2.883,0,0,0-3.139-3.16q-9.294-.016-18.587,0a2.921,2.921,0,0,0-3.191,3.208q-.016,6.846,0,13.692a2.9,2.9,0,0,0,3.239,3.226c3.07.009,6.141,0,9.211,0M60.846,8.369c-.459-1.377-.9-2.708-1.345-4.036-.739-2.2-2.093-2.859-4.308-2.12L20,13.956c-1.137.379-2.271.768-3.406,1.152a.877.877,0,0,0,.563.183q11.2,0,22.4-.009a4.76,4.76,0,0,0,1.456-.259q9.473-3.137,18.935-6.305c.282-.094.556-.214.9-.349M64.8,44.015h8.667c.017-.293.044-.535.044-.776,0-2.432-.022-4.863.019-7.294a1,1,0,0,0-.752-1.089,5.728,5.728,0,0,0-7.657,3.985,33.739,33.739,0,0,0-.321,5.174M3.578,27.507c2.1-.7,4.133-1.37,6.168-2.049,1.451-.484,1.413-.487,1.459-2.016.073-2.419-.569-5,1.564-7-3.084.961-6.1,1.932-9.082,2.989A2.7,2.7,0,0,0,2.021,22.74c.441,1.588,1.019,3.137,1.558,4.767M61.467,10.226,46.852,15.11l.043.142H63.138l-1.671-5.027M6.478,36.191l4.51,13.485.139-.044V34.642L6.478,36.191m4.715-9.2L4.228,29.329,5.9,34.355c1.669-.559,3.291-1.091,4.9-1.66a.706.706,0,0,0,.378-.521c.029-1.682.017-3.364.017-5.183M79.2,44.022c0-1.464.062-2.847-.012-4.223a8.919,8.919,0,0,0-7.084-8.061,8.7,8.7,0,0,0-9.2,4.776c-1.2,2.4-.883,4.938-.9,7.5h.939c0-1.32-.04-2.588.007-3.853a7.7,7.7,0,0,1,10.655-6.984A7.413,7.413,0,0,1,78.3,40.441c.018,1.18,0,2.36,0,3.581Zm-2.865,0c.054-3.859.23-5.578-.883-6.7v6.7Z" transform="translate(0 0)" fill="#ae5c28"/><path d="M85.18,104.124c-1.852,0-3.7.009-5.556,0a2.88,2.88,0,0,1-3.095-3.115q-.016-3.608,0-7.215A2.888,2.888,0,0,1,79.581,90.7q5.556-.037,11.112,0a2.89,2.89,0,0,1,3.088,3.131q.013,3.608,0,7.215a2.856,2.856,0,0,1-3.045,3.074c-1.852.014-3.7,0-5.556,0m-3.948-7.206c.109-.836.205-1.579.32-2.463-.821-.84-1.958-.223-3.018-.4v2.861Zm10.633-.007c0-.562.005-1.028,0-1.493-.02-1.554.2-1.356-1.358-1.353-.655,0-1.418-.245-1.74.41.12.915.22,1.676.319,2.436ZM81.53,100.385l-.284-2.4H78.511v2.8c1.076-.212,2.222.458,3.019-.408m10.3-2.405H89.074l-.3,2.383c.809.886,1.974.223,3.057.421Zm-7.181,2.4a2.171,2.171,0,0,0-2.544.772,1.453,1.453,0,0,1-1.439.608c-.619-.05-1.246-.011-1.869-.011q0,.158-.006.315a47.127,47.127,0,0,0,5.858.156Zm6.88,1.724q0-.178,0-.355c-.571,0-1.146-.036-1.714.009a1.614,1.614,0,0,1-1.651-.671c-.625-.962-1.53-.867-2.485-.728V102.2a57.853,57.853,0,0,0,5.852-.1m-6.9-7.669V92.653c-1.8,0-3.564-.009-5.325.013-.194,0-.385.179-.578.274a14.976,14.976,0,0,0,2.192.2,1.683,1.683,0,0,1,1.062.447,2.327,2.327,0,0,0,2.65.841M85.7,92.639v1.821a2.406,2.406,0,0,0,2.612-.826,1.919,1.919,0,0,1,1.2-.488,17.649,17.649,0,0,1,2.043-.021q0-.182,0-.364c-1.929-.255-3.878-.048-5.856-.121" transform="translate(-59.582 -70.611)" fill="#ae5c28"/><path d="M88.129,209.6q-2.945,0-5.891,0c-.6,0-1.122-.128-1.268-.806s.363-1.138,1.254-1.14c2.932-.008,5.863,0,8.8,0h3.07c.658,0,1.179.221,1.186.965s-.518.979-1.172.981c-1.991.006-3.983,0-5.974,0" transform="translate(-63.028 -161.683)" fill="#ae5c28"/><path d="M84.9,181.774c.882,0,1.764,0,2.645,0,.634,0,1.107.261,1.1.95s-.454.952-1.1.95c-1.819,0-3.638,0-5.456,0-.611,0-1.031-.278-1.057-.91-.028-.69.416-.979,1.058-.987.937-.011,1.874,0,2.811,0" transform="translate(-63.093 -141.536)" fill="#ae5c28"/><path d="M307.361,246.653c2.37,0,2.356,0,2.386,2.367a2.5,2.5,0,0,0,.3,1.225,3.394,3.394,0,0,1-.45,4.317,3.329,3.329,0,0,1-4.188.317,3.25,3.25,0,0,1-1.059-4.188,4.928,4.928,0,0,0,.561-2.591c-.017-1.2.249-1.442,1.453-1.447.331,0,.662,0,.993,0m-.6,1.97a3.659,3.659,0,0,1-.676,2.923,1.282,1.282,0,0,0,.5,1.8,1.324,1.324,0,0,0,1.739-.219,1.429,1.429,0,0,0,.059-1.888,5.411,5.411,0,0,1-.564-1.555,4.625,4.625,0,0,1-.015-1.06Z" transform="translate(-236.69 -192.055)" fill="#ae5c28"/></g></g><rect width="86" height="86" transform="translate(15282 -1076)" fill="none"/></g></svg>