<svg xmlns="http://www.w3.org/2000/svg" width="196.138" height="72.059" viewBox="0 0 196.138 72.059"><defs><style>.a{fill:#bb7a00;}</style></defs><g transform="translate(0)"><path class="a" d="M146.322,512.281a32.6,32.6,0,0,0,4.444.5c24.864,1.533,49.747,1.6,74.633.871,5.986-.174,11.941.077,17.912.215a54.752,54.752,0,0,1,22.708,5.443c8.808,4.207,17.83,8.045,27.924,7.087,16.573-1.569,30.005-8.422,39.131-24.422-11.277,3.7-21.349,7.036-31.453,10.3a182.933,182.933,0,0,1-23.358,5.829,12.107,12.107,0,0,1-8.673-1.142c-9.867-5.749-20.732-7-31.878-7.321-17.6-.5-35.166.917-52.75.99-11.053.046-22.035-1.045-33.044-1.789-1.678-.116-3.36-.162-5.042-.179a1.831,1.831,0,0,0-.555,3.616m-5.315-2.377a4.8,4.8,0,0,1,1.407-2.952,33.643,33.643,0,0,1,6.29-.5c5.127-.051,10.246-.022,15.371.051a1.7,1.7,0,0,0,.379.043c.659,0,1.32,0,1.979-.01.183,0,.362,0,.546.01a1.3,1.3,0,0,0,.133-.014h.208a19.827,19.827,0,0,0,4.422.311,123.094,123.094,0,0,0,14.866.355q8.791-.04,17.572-.188a1.753,1.753,0,0,0,.707-.154c2.233-.058,4.463-.2,6.7-.379,5.088.055,10.181,0,15.272.014,2.44,0,4.876.046,7.311.068a17.4,17.4,0,0,0,5.815.251c.881,0,1.767-.012,2.648,0,.328.022.652.027.98.017a32.136,32.136,0,0,1,5.175.5,1.813,1.813,0,0,0,.731,0c1.274.167,2.549.348,3.816.562,4.422.743,8.779,1.805,13.148,2.8.065.036.133.07.2.1.36.157.712.319,1.052.509.512.273,1.031.526,1.55.768.362.145.729.294,1.074.473.57.246,1.154.459,1.738.669.422.116.852.224,1.27.357a12.566,12.566,0,0,0,6.491-.367,13.559,13.559,0,0,1,2.245-.415,14.785,14.785,0,0,0,3.751-.862,13.26,13.26,0,0,1,1.55-.422q4.243-1.064,8.441-2.257c2.093-.485,4.14-1.12,6.223-1.728,3.447-1.007,6.942-1.837,10.389-2.836,7.034-2.044,14.241-3.876,21.173-6.235h.941a2.134,2.134,0,0,1,1.516,1.144l-.109-.068a3.921,3.921,0,0,1,1.127,3.049,5.29,5.29,0,0,1-.239,1.045c-.932,2.151-2.609,3.816-4.13,5.566-1.436,1.644-2.851,3.326-4.362,4.9a68.255,68.255,0,0,1-9.918,8.284,45.177,45.177,0,0,1-9.293,5.049,16.991,16.991,0,0,0-1.822.611,10.921,10.921,0,0,1-1.185.442c-.323.089-.64.2-.958.3-.69.2-1.383.379-2.088.546-5.667.574-11.518,1.32-17.256,1.079-2.45-.418-4.864-.992-7.282-1.53-.483-.162-.968-.311-1.46-.442a11.818,11.818,0,0,1-1.245-.444c-.6-.225-1.217-.42-1.827-.63a8.383,8.383,0,0,1-1.176-.468c-.543-.268-1.089-.529-1.634-.787-.357-.154-.715-.3-1.065-.483a16.446,16.446,0,0,0-1.636-.512,7.269,7.269,0,0,1-1.1-.352c-.531-.224-1.052-.473-1.562-.75-.343-.174-.678-.352-1-.558-.495-.275-1-.524-1.511-.77a10.462,10.462,0,0,1-1.014-.507c-.517-.256-1.048-.478-1.576-.7-.372-.13-.746-.263-1.108-.418-.589-.191-1.192-.343-1.784-.524-.413-.118-.828-.241-1.226-.4a20.2,20.2,0,0,0-3.268-.628c-.285-.123-.57-.239-.859-.348-4.333-1.649-9.281-1.76-13.939-1.769-7.606-1.231-15.281-.553-22.952-.029-1.048.01-2.1.022-3.143.029a196.419,196.419,0,0,1-20.109.7c-2.061-.217-4.128-.372-6.194-.483-1.477-.118-2.964-.147-4.451-.174l-.758-.012c-2.049-.21-4.113-.316-6.179-.362-1.721-.5-3.514-.087-5.259-.193-2.308-.14-4.622-.068-6.937,0-.439-.015-.879-.022-1.318-.036a1.823,1.823,0,0,0-.558.077,38.732,38.732,0,0,1-8.982-.635c-.084,0-.171-.007-.256-.007-.758-.133-1.523-.244-2.291-.34a5.873,5.873,0,0,0-1.916-.21c-1.231-.116-2.457-.191-3.693-.229a3.738,3.738,0,0,1-.792-.439l.106.082a2.784,2.784,0,0,1-1.18-1.231l.1.123a6.818,6.818,0,0,1-.806-4.106" transform="translate(-140.96 -458.381)"/><path class="a" d="M160.057,500.549c1.538-4.557.973-9.122,1.938-13.785a2.9,2.9,0,0,0-2.279,1.226c-5.863,5.752-5.863,5.752.34,12.559m6.056-1.465c4.461-4.067,4.468-4.089,1.007-9.22-.625-.924-.963-2.163-2.551-2.624-.925,4.5-1.04,9.008-1.521,13.739a5.055,5.055,0,0,0,3.065-1.895m-19.7.468a3.379,3.379,0,0,1,.562-.83c.256-.205.495-.413.731-.63a4.427,4.427,0,0,0,.244-.519c3-3.5,6.034-6.964,9.025-10.473.507-.6,1.081-1.414,1.7-2.24.162-.128.323-.256.485-.389l.041-.024-.019.058c.017-.034.036-.063.053-.092.379-.307.763-.611,1.151-.9a.5.5,0,0,0,.495-.292c.13-.109.258-.217.381-.328a9.7,9.7,0,0,1,1.5-.823c2.153-.932,3.343,1.3,4.782,2.619,1.113,2.028,2.134,4.1,3.2,6.155a80.317,80.317,0,0,1,5.187,10.891,63.581,63.581,0,0,1,2.551,11.427c.111.787.239,1.579.362,2.375a10.574,10.574,0,0,0,.229,1.615c.072.546.133,1.089.176,1.632a2.755,2.755,0,0,1-.1.446c-.5.821-.707,1.777-1.192,2.6l0-.017c-.968,1.361-1.511,3.84-3.876,1.506.06-.089.128-.186.212-.29a9.621,9.621,0,0,0,1.458-5.8c-3.6,3.285-6.72,6.126-9.916,9.037-1.05-2.064-.2-3.295,1.1-4.453,2.107-1.895,4.045-4.007,6.285-5.728,3.16-2.428,3.756-5.158,1.494-8.965-2.426,2.223-4.782,4.393-7.154,6.548-.77.7-1.576,1.371-2.363,2.056-.517.449-1.026.584-1.487-.058-.357-.5-.693-1.1-.212-1.61.908-.985,1.912-1.878,2.9-2.79,1.745-1.632,3.522-3.232,5.255-4.871,2.759-2.612,2.742-2.621,1.265-6.044a3.782,3.782,0,0,0-1.789-2.3c-3.927,3.879-9.732,6.406-9.37,13.616-1.1-.823-1.945-1.533-1.822-2.406.606-4.251-2.194-6.925-4.352-9.906-.78-1.074-1.576-2.126-2.474-3.331a11.643,11.643,0,0,0-3.676,5.081c-.2.531-.707.623-1.147.809a2.8,2.8,0,0,1-.7-.152,3.489,3.489,0,0,1-.881-.7c-.094-.164-.188-.311-.285-.471-.034-.179-.068-.347-.1-.526.036-.176.065-.345.1-.516" transform="translate(3.952 -481.848)"/><path class="a" d="M160.68,510.52c3.152,1.3,6.312,2.568,9.532,3.872-.835-6.418-2.245-7.673-12.515-11.132-1.463,5.366-1.431,5.448,2.983,7.26m13,2.1a112.738,112.738,0,0,0,3.594-12,1.952,1.952,0,0,0-.664-2.351c-1.163-.891-2.218-1.972-3.838-2.245-2.151,5.622-4.465,11.125.908,16.6m-10.314-21.444c-.456.618.007,1.115.246,1.62,1.33,2.769,2.674,5.523,3.956,8.158,1.142-.046,1.19-.71,1.354-1.255,1.948-6.384,1.509-7.058-5.556-8.523m-4.272,1.849c-1.576,8.018-3.715,6.985,6.679,10.063-2.049-4.241-3.775-7.818-5.448-11.282-1.163.022-1.147.763-1.231,1.219m-5.052,16c.036-1.146.121-2.288.222-3.427a3.1,3.1,0,0,0,.121-1.262c.135-1.255.29-2.515.451-3.768.29-2.271.743-4.468,1.25-6.691a1.618,1.618,0,0,0,.179-.768c.4-1.644,1.265-3.133,1.586-4.765a4.122,4.122,0,0,1,.492-.406c1.637-1.12,3.541-.063,5.209.5,3.041,1.028,6.667,1.373,9.2,3.471a1.321,1.321,0,0,0,.828.321.45.45,0,0,0,0,.345c.084.208.164.311.237.307,2.539,2.069,5.17,4.033,7.594,6.225a24.15,24.15,0,0,1,7.915,14.7,13.669,13.669,0,0,1,.084,3.109c-.072.9-.408,1.914-1.533,1.849-1.448-.08-.813-1.289-.825-2.056a13.034,13.034,0,0,0-1.61-6.92c-2.629,3.739-1.245,9.2-5.2,12.414-1.361-1.482-.442-2.6-.179-3.676.751-3.044,1.436-6.124,2.474-9.071,1.137-3.227.772-5.771-2.59-7.784a99.163,99.163,0,0,0-4.369,14.919c-.442,1.822,1.12,3.326,1.709,5,.224.639.179,1.175-.449,1.492-.579.29-1.422.251-1.6-.29-2.24-6.717-8.965-6.662-13.913-9.257a6.516,6.516,0,0,0-3.753-1.161c-.051,4.6.029,4.714,3.905,6.418q5.532,2.426,11.043,4.9c.077.039.07.282.106.466a4.679,4.679,0,0,1-3.389.613,13.354,13.354,0,0,0-2.976-.116c-.2-.085-.4-.174-.594-.273-.451-.2-.9-.374-1.354-.553-.28-.1-.553-.193-.835-.319-.442-.109-.743-.055-.608.485a3.5,3.5,0,0,1,.222.871,1.73,1.73,0,0,1-.579,1.364,1.894,1.894,0,0,1-1.026.213,12.327,12.327,0,0,1-2.023-.456,2.415,2.415,0,0,1-.84-.541,11.217,11.217,0,0,1-.806-1.192,8.586,8.586,0,0,1-.475-.8c-.222-.41-.463-.8-.717-1.185a7.9,7.9,0,0,1-.524-.792,11.52,11.52,0,0,1-.965-1.789,6.609,6.609,0,0,1-.285-1.043,10.232,10.232,0,0,0-.3-1.284,72.378,72.378,0,0,1-.507-8.342" transform="translate(-24.88 -473.935)"/></g></svg>