<svg xmlns="http://www.w3.org/2000/svg" xmlns:xlink="http://www.w3.org/1999/xlink" width="213.88" height="80.631" viewBox="0 0 213.88 80.631"><defs><style>.a{fill:url(#a);}.b{fill:url(#b);}.c{fill:#fff;}.d{fill:#f0ea74;}.e{fill:url(#f);}.f{fill:#683b11;}.g{fill:#00431f;}.h{fill:#422918;}</style><linearGradient id="a" y1="0.5" x2="1" y2="0.5" gradientUnits="objectBoundingBox"><stop offset="0" stop-color="#32a94a"/><stop offset="0.085" stop-color="#3eab48"/><stop offset="0.303" stop-color="#58b146"/><stop offset="0.527" stop-color="#6bb545"/><stop offset="0.756" stop-color="#77b844"/><stop offset="1" stop-color="#7bb944"/></linearGradient><linearGradient id="b" y1="0.5" x2="1" y2="0.5" gradientUnits="objectBoundingBox"><stop offset="0" stop-color="#7bb944"/><stop offset="1" stop-color="#32a94a"/></linearGradient><linearGradient id="f" x1="-47.675" y1="0.5" x2="-46.675" y2="0.5" xlink:href="#a"/></defs><g transform="translate(0)"><path class="a" d="M503.3,485.987S475.859,522.45,447.772,527.6,434.63,514.59,434.63,514.59,469.546,484.312,503.3,485.987Z" transform="translate(-289.422 -462.28)"/><path class="b" d="M64.344,485.987S91.787,522.45,119.875,527.6s13.142-13.013,13.142-13.013S98.1,484.312,64.344,485.987Z" transform="translate(-64.344 -462.28)"/><path class="c" d="M157.25,549.587s7.293,6.056,8.736,6.249-.361-.709-.361-.709S158.732,550.682,157.25,549.587Z" transform="translate(-121.429 -501.4)"/><path class="c" d="M498.08,555.162s6.893-4.445,8.375-5.54c0,0-7.293,6.056-8.736,6.249" transform="translate(-330.628 -501.421)"/><path class="a" d="M341.709,582.9a33.293,33.293,0,0,0,8.891,2.448S378.559,603.9,437.053,568.6c0,0-20.522-15.2-95.039,4.123l-.305,1.159Z" transform="translate(-234.769 -509.59)"/><path class="b" d="M189.764,582.9a33.3,33.3,0,0,1-8.892,2.448S152.913,603.9,94.419,568.6c0,0,20.522-15.2,95.039,4.123l.305,1.159Z" transform="translate(-82.823 -509.59)"/><path class="c" d="M203.7,604.725s28.345,6.846,45.61,3.367,0-1.572,0-1.572S236.168,610,203.7,604.725Z" transform="translate(-149.97 -535.279)"/><path class="c" d="M398.042,604.725s-28.345,6.846-45.61,3.367,0-1.572,0-1.572S365.574,610,398.042,604.725Z" transform="translate(-236.643 -535.279)"/><ellipse class="d" cx="62.521" cy="35.85" rx="62.521" ry="35.85" transform="translate(43.551)"/><path class="a" d="M341.709,472.588s4.9-1.482,7.474-3.865c0,0,13.335-4.381,5.927-23.063,0,0-14.881,7.022-8.31,22.934,0,0,3.994-3.285,6.12-11.209C352.919,457.384,351.886,468.272,341.709,472.588Z" transform="translate(-234.769 -437.543)"/><path class="e" d="M313.133,472.588s-4.9-1.482-7.474-3.865c0,0-13.335-4.381-5.927-23.063,0,0,14.881,7.022,8.31,22.934,0,0-3.994-3.285-6.12-11.209C301.922,457.384,302.956,468.272,313.133,472.588Z" transform="translate(-207.599 -437.543)"/><circle class="f" cx="2.706" cy="2.706" r="2.706" transform="translate(103.978 7.731)"/><path class="f" d="M305.288,442.541s14.258,6.4,10.651,26.069C315.939,468.61,325.817,448.6,305.288,442.541Z" transform="translate(-212.39 -435.626)"/><path class="f" d="M343.419,468.61s-9.878-20.014,10.651-26.069c0,0-14.258,6.4-10.651,26.069" transform="translate(-234.36 -435.626)"/><g transform="translate(85.095 35.341)"><path class="f" d="M291.708,520.923a2.6,2.6,0,0,1-.189.411q-1.349,2.35-3.3,1.628a3.45,3.45,0,0,1-1.6-1.171l-.084.228a2.485,2.485,0,0,0-.239,1.046,2.224,2.224,0,0,1,.046.51.547.547,0,0,1-.308.317.578.578,0,0,1-.446.021.715.715,0,0,1-.533-.592,2.516,2.516,0,0,1,.155-.819q.114-.377.291-.854a4.841,4.841,0,0,1,.253-.535,4.885,4.885,0,0,0,.258-.546l.273-.738a9.347,9.347,0,0,1,.4-.944q.289-.615.4-.918l.361-.977q.008-.021.119-.622a.856.856,0,0,1,.623-.066.6.6,0,0,1,.384.383.844.844,0,0,1-.018.579l-.056.152a2.331,2.331,0,0,1,2.16-.274,2.075,2.075,0,0,1,1.342,1.372,2.99,2.99,0,0,1-.117,1.954l-.084.228Zm-.923-.539a3.452,3.452,0,0,0,.245-1.365,1.094,1.094,0,0,0-.7-1.073,1.81,1.81,0,0,0-1.809.491,3.684,3.684,0,0,0-1.193,1.593,1.426,1.426,0,0,0,.962,2.07,1.348,1.348,0,0,0,1.454-.264,5.642,5.642,0,0,0,.937-1.269C290.753,520.438,290.788,520.377,290.785,520.384Z" transform="translate(-285.049 -516.269)"/><path class="f" d="M303.152,528.641a.45.45,0,0,1-.25.3.579.579,0,0,1-.411.045q-.707-.18-.235-2.03.215-.84.66-2.518t.659-2.518a3.466,3.466,0,0,0,.066-.4,3.471,3.471,0,0,1,.063-.389,1.224,1.224,0,0,1,.646-.1.815.815,0,0,1,.429.282.5.5,0,0,1,.12.466.977.977,0,0,1-.13.277c-.1.166-.153.256-.164.269a10.516,10.516,0,0,0-.648,1.935q-.517,2.029-.531,2.085a7.311,7.311,0,0,0-.267,2.033A.821.821,0,0,1,303.152,528.641Z" transform="translate(-295.506 -519.188)"/><path class="f" d="M311.123,534.469q-.105.569-.938.744a3.322,3.322,0,0,1-1.309.017q-1.752-.324-1.383-2.315a5.057,5.057,0,0,1,.735-1.746q.716-1.138,1.41-1.009a2.3,2.3,0,0,1,1.245.807,1.551,1.551,0,0,1,.507,1.294,1.391,1.391,0,0,1-.892,1.07,2.509,2.509,0,0,1-1.484.137,1.3,1.3,0,0,1-.476-.288q-.155,1.089.437,1.2a1.952,1.952,0,0,0,1.036-.1,1.9,1.9,0,0,1,.672-.17Q311.173,534.2,311.123,534.469Zm-.842-2.379a1,1,0,0,0-.065-.571.51.51,0,0,0-.39-.337.659.659,0,0,0-.641.222,1.3,1.3,0,0,0-.295.64.465.465,0,0,0,.082.38.541.541,0,0,0,.35.206Q310.152,532.784,310.281,532.09Z" transform="translate(-298.8 -524.796)"/><path class="f" d="M321.663,529.408a2.718,2.718,0,0,1-.161.575,2.681,2.681,0,0,0-.161.575l-.279,2.366a2.826,2.826,0,0,0,.057.706.482.482,0,0,1-.414.219.722.722,0,0,1-.715-.818q.043-1.358.123-2.036a16.478,16.478,0,0,1,.317-1.9c0-.038.009-.076.014-.115q.024-.206.343-.169a1.522,1.522,0,0,1,.556.182Q321.692,529.167,321.663,529.408Zm.293-1.6a.542.542,0,0,1-.221.393.6.6,0,0,1-.444.111.884.884,0,0,1-.533-.273.63.63,0,0,1-.2-.536.535.535,0,0,1,.227-.393.639.639,0,0,1,.461-.108.843.843,0,0,1,.528.266A.641.641,0,0,1,321.956,527.812Z" transform="translate(-306.518 -522.863)"/><path class="f" d="M329.635,537.227a.5.5,0,0,1-.443.241,1.711,1.711,0,0,1-.633-.268l.008-.138q.015-.254.054-.75t.053-.727q.14-2.471-.595-2.513-.207-.011-.489.3a3.654,3.654,0,0,0-.951,2.344,3.37,3.37,0,0,0,.042.587,3.363,3.363,0,0,1,.042.588.312.312,0,0,1-.165.257.556.556,0,0,1-.329.086q-.693-.039-.643-.917l.137-2.414a2.277,2.277,0,0,1,.039-.27,2.262,2.262,0,0,0,.039-.27,3.021,3.021,0,0,0-.017-.407,2.866,2.866,0,0,1-.019-.395.461.461,0,0,1,.234-.34.66.66,0,0,1,.4-.146.74.74,0,0,1,.5.318l-.061.46a1.236,1.236,0,0,1,1.089-.622,1.65,1.65,0,0,1,.839.325,1.915,1.915,0,0,1,.623.661,4.865,4.865,0,0,1,.343,2.336Z" transform="translate(-309.954 -525.979)"/><path class="f" d="M347.856,525.748a4.105,4.105,0,0,1-.031.662c-.041.366-.067.583-.078.654q-.014.36.012,2.12t.037,1.944a4.355,4.355,0,0,0,.339,1.649.55.55,0,0,1-.432.349.66.66,0,0,1-.485-.174.726.726,0,0,1-.258-.454,1.648,1.648,0,0,1-1.08.561,1.566,1.566,0,0,1-1.339-.513,2.167,2.167,0,0,1-.508-1.373,5.6,5.6,0,0,1,.3-2.091q.455-1.358,1.309-1.408a1.628,1.628,0,0,1,1.065.39q.027-.546-.1-2.775c-.008-.138.092-.214.3-.226a1.114,1.114,0,0,1,.652.148A.628.628,0,0,1,347.856,525.748Zm-1.113,3.992a1.493,1.493,0,0,0-.214-.706.655.655,0,0,0-.6-.359q-.519.03-.737,1.074a5.353,5.353,0,0,0-.123,1.467q.062,1.074.686,1.038.647-.038.88-1.013A5.146,5.146,0,0,0,346.743,529.741Z" transform="translate(-321.286 -521.67)"/><path class="f" d="M356.829,523.821q.006.046-.118.177l-.125.12a2.645,2.645,0,0,0-.291.687q-.119.376-.225.749c-.07.195-.174.3-.312.317a.463.463,0,0,1-.249-.04.272.272,0,0,1-.187-.2q.187-.581.384-1.176.33-.948.49-.967a.784.784,0,0,1,.377.089Q356.812,523.683,356.829,523.821Z" transform="translate(-328.227 -520.704)"/><path class="f" d="M365.706,521.458a14.525,14.525,0,0,1,.214,2.553,18.685,18.685,0,0,1-.254,2.862q-.357,2.245-.923,2.36a1.933,1.933,0,0,1-.919.01q-.767-.233-1.8-2.679-.636-1.664-1.281-3.327a2.627,2.627,0,0,0-.173-.33,1.179,1.179,0,0,1-.133-.1.281.281,0,0,1-.086-.16.513.513,0,0,1,.2-.466.9.9,0,0,1,.464-.272.747.747,0,0,1,.553.106.666.666,0,0,1,.327.447q.041.2.1.629t.1.629a10.987,10.987,0,0,0,.739,2.175q1.016,2.319,1.345,2.252c.143-.029.259-.175.347-.437a10.287,10.287,0,0,0,.408-2.917,13.09,13.09,0,0,0-.168-2.964.479.479,0,0,0-.244-.357q-.191-.1-.2-.12-.025-.124.216-.386a.893.893,0,0,1,.378-.29.521.521,0,0,1,.485.238A1.245,1.245,0,0,1,365.706,521.458Z" transform="translate(-331.314 -518.971)"/><path class="f" d="M377.941,523.26a.543.543,0,0,1-.044.449.6.6,0,0,1-.362.28.88.88,0,0,1-.6-.035.631.631,0,0,1-.4-.411.537.537,0,0,1,.05-.451.641.641,0,0,1,.379-.285.845.845,0,0,1,.59.032A.641.641,0,0,1,377.941,523.26Zm.373,1.58a2.692,2.692,0,0,1,.083.591,2.736,2.736,0,0,0,.084.591l.7,2.279a2.788,2.788,0,0,0,.335.623.482.482,0,0,1-.291.367.722.722,0,0,1-.984-.462q-.505-1.26-.7-1.914a16.475,16.475,0,0,1-.472-1.863c-.012-.037-.023-.073-.034-.111-.041-.132.042-.23.246-.293a1.53,1.53,0,0,1,.582-.057Q378.243,524.607,378.314,524.84Z" transform="translate(-341.248 -520.263)"/><path class="f" d="M388.024,527.838q.213.539-.4,1.128a3.323,3.323,0,0,1-1.1.709q-1.657.655-2.4-1.228a5.064,5.064,0,0,1-.3-1.87q0-1.345.66-1.6a2.3,2.3,0,0,1,1.483.024,1.549,1.549,0,0,1,1.116.827,1.39,1.39,0,0,1-.188,1.381,2.508,2.508,0,0,1-1.185.9,1.292,1.292,0,0,1-.556.008q.447,1.005,1.006.784a1.957,1.957,0,0,0,.824-.637,1.874,1.874,0,0,1,.48-.5Q387.923,527.58,388.024,527.838Zm-1.976-1.57a1,1,0,0,0-.358-.45.508.508,0,0,0-.51-.078.656.656,0,0,0-.425.529,1.3,1.3,0,0,0,.089.7.465.465,0,0,0,.271.278.54.54,0,0,0,.406-.011Q386.308,526.924,386.049,526.269Z" transform="translate(-345.738 -521.549)"/></g><g transform="translate(59.432 45.747)"><path class="g" d="M225.353,552.276a3.3,3.3,0,0,1-2.429,1.383,3.915,3.915,0,0,1-2.815-.583,3.325,3.325,0,0,1-1.615-3.04,6.766,6.766,0,0,1,1.323-3.356,8.567,8.567,0,0,1,3.07-2.815,3.507,3.507,0,0,1,3.873-.052,3.2,3.2,0,0,1,1.181,1.373,2.237,2.237,0,0,1,.021,1.783q-.3.722-.277.7-1.206,1.774-2.01,1.227a.835.835,0,0,1-.332-.461.6.6,0,0,1,.074-.541,1.122,1.122,0,0,1,.406-.294,1.113,1.113,0,0,0,.415-.308,2.493,2.493,0,0,0,.527-1.176,1.24,1.24,0,0,0-.681-1.034,2.035,2.035,0,0,0-1.945-.009,5.142,5.142,0,0,0-1.734,1.116,10.841,10.841,0,0,0-1.255,1.5,7.2,7.2,0,0,0-1.041,1.961,2.2,2.2,0,0,0,.482,2.074,2.3,2.3,0,0,0,.426.408,2.07,2.07,0,0,0,1.287.288,3.375,3.375,0,0,0,1.294-.353,2.144,2.144,0,0,0,.656-.592l-.026-.077a4.593,4.593,0,0,0-1.628-.774q-.215-.029-.439-.045a1.111,1.111,0,0,1-.4-.133.718.718,0,0,1-.331-.636,1.344,1.344,0,0,1,.241-.757.67.67,0,0,1,.636-.273,6.875,6.875,0,0,1,1.431.6,15.5,15.5,0,0,1,1.435.8Q226.272,550.924,225.353,552.276Z" transform="translate(-218.489 -543.257)"/><path class="g" d="M248.387,565.017l-.03.075a.712.712,0,0,1-.689.1.584.584,0,0,1-.343-.4q.085-.595-1.272-2.564a6.98,6.98,0,0,0-1.956-2.214l-.27-.11c-.144-.047-.241-.081-.291-.1l-.238.585a5.979,5.979,0,0,0-.249.825,2.418,2.418,0,0,0-.135.8,1.425,1.425,0,0,1,.087.56.59.59,0,0,1-.391.357.8.8,0,0,1-.55-.023,1.14,1.14,0,0,1-.719-.766q-.154-.482.91-3.091a1.45,1.45,0,0,1-.58-.464.7.7,0,0,1-.182-.669q.226-.555,1.329-.385.249-.441.624-1.232.4-.9.595-1.244.285-.443.812-1.348l-.12-.049q-.606-.23-.386-.77a.586.586,0,0,1,.6-.438l.571.058a2.467,2.467,0,0,1,.616-.16,1.456,1.456,0,0,1,.581.141c.18.073.237.19.172.35-.02.05.094.126.344.228a6.378,6.378,0,0,1,2.7,1.921,2.913,2.913,0,0,1,.506,3.092,3.069,3.069,0,0,1-1.617,1.737,7.832,7.832,0,0,1-2.367.486q.79,1.109,1.564,2.212A2.708,2.708,0,0,1,248.387,565.017Zm.7-7.549a1.691,1.691,0,0,0-.386-1.853,4.265,4.265,0,0,0-1.671-1.154q-.135-.055-.666-.219a9.406,9.406,0,0,1-1.044,1.743,16.383,16.383,0,0,0-1.173,2.232,5.43,5.43,0,0,0,.962.742,2.145,2.145,0,0,0,.569.11,4.211,4.211,0,0,0,2-.252A2.388,2.388,0,0,0,249.086,557.468Z" transform="translate(-232.517 -548.845)"/><path class="g" d="M273.423,572.614a1,1,0,0,1-.229.437.436.436,0,0,1-.443.167,1.012,1.012,0,0,1-.175-.069.974.974,0,0,0-.174-.07,7.269,7.269,0,0,0-2.058-.09,7.294,7.294,0,0,1-2.058-.09q-2.526-.644-1.55-4.472.767-3.013,1.373-4.73c.05-.154.077-.236.08-.247a2.511,2.511,0,0,0,.051-.33,2.339,2.339,0,0,1,.047-.314.827.827,0,0,1,1-.647q1.264.088,2.533.161a14.621,14.621,0,0,1,2.445.306,1.993,1.993,0,0,1,.76.361.7.7,0,0,1,.315.732q-.147.581-.917.384a2.726,2.726,0,0,1-.284-.1,2.852,2.852,0,0,0-.284-.1,15.316,15.316,0,0,0-3.612-.319,1.626,1.626,0,0,0-.248-.013q-.118,0-.217.2a16.538,16.538,0,0,0-.925,2.906q-.084.329.214.405a5.152,5.152,0,0,0,1.229.1,5.2,5.2,0,0,1,1.229.1,2.609,2.609,0,0,1,.979.551,3.346,3.346,0,0,1,0,.652q-.1.392-.344.364c-.162-.019-.335-.04-.518-.065a.669.669,0,0,0-.325-.167,7.7,7.7,0,0,0-1.354-.195q-.68-.023-1.37-.065c-.066-.005-.123-.009-.173-.011s-.1.053-.15.162a4.513,4.513,0,0,0-.147.447,12.062,12.062,0,0,0-.321,1.456q-.076.95.631,1.13a6.566,6.566,0,0,0,1.834.083,6.655,6.655,0,0,1,1.912.1Q273.247,571.992,273.423,572.614Z" transform="translate(-247.967 -554.867)"/><path class="g" d="M296.84,577.01a.983.983,0,0,1-.183.458.437.437,0,0,1-.425.211,1.057,1.057,0,0,1-.18-.052,1.048,1.048,0,0,0-.181-.052,7.274,7.274,0,0,0-2.056.117,7.3,7.3,0,0,1-2.056.117q-2.579-.388-1.991-4.3.463-3.074.893-4.844c.035-.159.053-.243.054-.254a2.466,2.466,0,0,0,.018-.333,2.469,2.469,0,0,1,.015-.317.828.828,0,0,1,.931-.745q1.267-.039,2.536-.094a14.543,14.543,0,0,1,2.464.059,1.972,1.972,0,0,1,.793.283.7.7,0,0,1,.386.7q-.089.593-.874.475a2.788,2.788,0,0,1-.293-.069,2.755,2.755,0,0,0-.293-.069,15.306,15.306,0,0,0-3.626.044,1.636,1.636,0,0,0-.247.012c-.078.01-.143.082-.2.216a16.592,16.592,0,0,0-.629,2.985q-.05.336.254.382a5.152,5.152,0,0,0,1.233-.028,5.187,5.187,0,0,1,1.232-.027,2.592,2.592,0,0,1,1.029.45,3.39,3.39,0,0,1,.066.648q-.06.4-.3.4t-.522-.013a.668.668,0,0,0-.34-.133,7.738,7.738,0,0,0-1.367-.058q-.678.046-1.37.073c-.066,0-.124,0-.173.007s-.094.062-.133.176a4.394,4.394,0,0,0-.1.46,12.063,12.063,0,0,0-.173,1.481q.02.953.741,1.061a6.585,6.585,0,0,0,1.833-.1,6.648,6.648,0,0,1,1.913-.089Q296.6,576.408,296.84,577.01Z" transform="translate(-262.219 -557.789)"/><path class="g" d="M321.1,569.545a1.037,1.037,0,0,1-.172.444q-.2.346-.236.425a8.345,8.345,0,0,0-.613,2.384l-.326,4.644a4.062,4.062,0,0,1-.41,1.438q-.46.915-1.058.879-.889-.053-1.673-1.592a17.3,17.3,0,0,1-1.1-3.115q-.3-1.283-.609-2.567-.5,2.727-.56,3.665a5.8,5.8,0,0,0,.109,2.391.917.917,0,0,1,.224.468.669.669,0,0,1-.356.522,1.1,1.1,0,0,1-.66.2q-.453-.027-.687-1a4.693,4.693,0,0,1-.145-1.371q.016-.274.065-.815t.065-.815a17.545,17.545,0,0,1,.279-1.962,17.647,17.647,0,0,0,.28-1.963l.118-1.972a.316.316,0,0,0-.019-.1.3.3,0,0,1-.018-.1c.013-.215.169-.385.468-.507a1.579,1.579,0,0,1,.722-.135,1.314,1.314,0,0,1,1.148.6,2.605,2.605,0,0,1,.134.754q.025.39.05.8a29.616,29.616,0,0,0,.8,3.746q.807,3.05,1.293,3.078c.118.007.187-.14.2-.443a3.6,3.6,0,0,0-.015-.424,3.492,3.492,0,0,1-.013-.456l.423-4.379a8.02,8.02,0,0,1,.455-1.923q.5-1.32,1.212-1.277a1.252,1.252,0,0,1,.613.329A.761.761,0,0,1,321.1,569.545Z" transform="translate(-276.453 -559.066)"/><path class="g" d="M339.091,568.93c0,.043-.066.118-.2.225l-.2.144a3.723,3.723,0,0,0-.525.9q-.231.5-.446,1-.2.387-.489.384a.648.648,0,0,1-.339-.1.381.381,0,0,1-.224-.31q.362-.775.741-1.565.625-1.258.852-1.256a1.087,1.087,0,0,1,.508.19C338.988,568.673,339.091,568.8,339.091,568.93Z" transform="translate(-291.108 -558.679)"/><path class="g" d="M352.6,576.376a3.3,3.3,0,0,1-1.094,2.573,3.92,3.92,0,0,1-2.593,1.242,3.324,3.324,0,0,1-3.126-1.44,6.763,6.763,0,0,1-.981-3.471,8.577,8.577,0,0,1,.736-4.1,3.509,3.509,0,0,1,3.051-2.388,3.2,3.2,0,0,1,1.772.376,2.24,2.24,0,0,1,1.1,1.406q.2.754.2.721.115,2.142-.855,2.194a.834.834,0,0,1-.544-.166.6.6,0,0,1-.269-.475,1.114,1.114,0,0,1,.145-.48,1.113,1.113,0,0,0,.143-.5,2.5,2.5,0,0,0-.293-1.255,1.24,1.24,0,0,0-1.169-.409,2.035,2.035,0,0,0-1.552,1.172,5.14,5.14,0,0,0-.7,1.939,10.81,10.81,0,0,0-.089,1.954,7.21,7.21,0,0,0,.36,2.19,2.2,2.2,0,0,0,1.641,1.358,2.3,2.3,0,0,0,.585.066,2.073,2.073,0,0,0,1.2-.551,3.374,3.374,0,0,0,.815-1.066,2.151,2.151,0,0,0,.163-.868l-.067-.045a4.6,4.6,0,0,0-1.764.37c-.126.071-.252.149-.377.231a1.106,1.106,0,0,1-.4.135.718.718,0,0,1-.649-.306,1.34,1.34,0,0,1-.267-.748.67.67,0,0,1,.34-.6,6.862,6.862,0,0,1,1.5-.389,15.407,15.407,0,0,1,1.625-.233Q352.512,574.744,352.6,576.376Z" transform="translate(-296.094 -558.943)"/><path class="g" d="M374.561,565.83a1.032,1.032,0,0,1-.079.47q-.126.378-.145.463a8.371,8.371,0,0,0-.119,2.459l.62,4.614a4.063,4.063,0,0,1-.111,1.491q-.266.99-.859,1.075-.881.128-1.961-1.221a17.333,17.333,0,0,1-1.7-2.829q-.55-1.2-1.115-2.391.058,2.774.193,3.7a5.8,5.8,0,0,0,.59,2.32.912.912,0,0,1,.313.412.669.669,0,0,1-.243.583,1.1,1.1,0,0,1-.608.325q-.448.065-.874-.839a4.693,4.693,0,0,1-.419-1.314q-.039-.272-.1-.812t-.1-.812a17.577,17.577,0,0,1-.123-1.978,17.687,17.687,0,0,0-.123-1.979l-.283-1.955a.311.311,0,0,0-.038-.093.313.313,0,0,1-.038-.093q-.046-.32.356-.591a1.577,1.577,0,0,1,.68-.278,1.316,1.316,0,0,1,1.247.359,2.642,2.642,0,0,1,.283.712q.1.378.21.771a29.716,29.716,0,0,0,1.539,3.507q1.407,2.823,1.888,2.754.176-.026.111-.475a3.446,3.446,0,0,0-.1-.412,3.54,3.54,0,0,1-.1-.443l-.47-4.375a8.016,8.016,0,0,1,.057-1.975q.223-1.393.929-1.5a1.244,1.244,0,0,1,.667.2A.779.779,0,0,1,374.561,565.83Z" transform="translate(-309.881 -556.915)"/><path class="g" d="M400.154,566.108a6.646,6.646,0,0,1-.119,4.113,4.06,4.06,0,0,1-2.941,2.655,4.319,4.319,0,0,1-1.378.107,3.817,3.817,0,0,1-2.693-1.157,6.176,6.176,0,0,1-1.321-2.7,7.775,7.775,0,0,1,.05-4.38,4.056,4.056,0,0,1,2.938-2.988,3.608,3.608,0,0,1,3.54,1A6.786,6.786,0,0,1,400.154,566.108Zm-1.541.25q-.847-3.26-3.114-3.357a1.881,1.881,0,0,0-.518.068,2.742,2.742,0,0,0-1.552,1.24q-1.065,1.632-.218,4.892a4.032,4.032,0,0,0,.341.8,3.623,3.623,0,0,0,1.252,1.532,2.464,2.464,0,0,0,1.95.162,2.681,2.681,0,0,0,2.01-2.178A6.716,6.716,0,0,0,398.613,566.359Z" transform="translate(-324.741 -554.547)"/><path class="g" d="M423.633,565.136a10.777,10.777,0,0,1-3.179,1.981,2.258,2.258,0,0,1-2.383-.181,5.093,5.093,0,0,1-1.366-2.1q-.361-.884-.937-2.679t-.937-2.678q-.068-.165-.237-.515t-.243-.531a3.305,3.305,0,0,1-.135-.417.993.993,0,0,1,.587-.66.773.773,0,0,1,.865.276,2.441,2.441,0,0,1,.547.826q.416,1.02,1.042,3.108t1.036,3.093q.723,1.769,1.727,1.359a4.459,4.459,0,0,0,1.164-.834,4.449,4.449,0,0,1,1.164-.834.768.768,0,0,1,.8.111A1.557,1.557,0,0,1,423.633,565.136Z" transform="translate(-338.753 -551.891)"/><path class="g" d="M446.821,549.894a.67.67,0,0,1-.157,1.044,5.733,5.733,0,0,0,.842.653.768.768,0,0,1,.07.648.988.988,0,0,1-.423.541,1.67,1.67,0,0,1-.669.217,2.223,2.223,0,0,1-.719-.731q-.079-.123-.214-.363t-.2-.349q.061.1-.389.384-.763.49-1.769,1.231-1.447,1.044-1.48,1.277a4.931,4.931,0,0,0,.766,1.567.628.628,0,0,1-.284.548,1.126,1.126,0,0,1-.739.138.79.79,0,0,1-.628-.318,5.6,5.6,0,0,1-.244-.921q-.349-1.143-.977-3.472-1.383-6.173-.17-6.952,1.186-.761,3.523,1.472a34.945,34.945,0,0,1,2.866,3.3,2.509,2.509,0,0,1,.537-.152A.485.485,0,0,1,446.821,549.894Zm-2.24.706q-3.652-4.371-4.129-4.066-.382.245.1,3.092.351,2.045.716,3.485.375-.375,1.146-1.063A17.43,17.43,0,0,1,444.58,550.6Z" transform="translate(-353.897 -544.231)"/></g><path class="h" d="M277.431,541.252A89.778,89.778,0,0,1,261.36,539.8a82.567,82.567,0,0,1-23.858-7.978l.23-.4a82.115,82.115,0,0,0,23.729,7.927,87.655,87.655,0,0,0,55.352-7.934l.207.413A87.72,87.72,0,0,1,277.431,541.252Z" transform="translate(-170.74 -490.233)"/></g></svg>