<svg xmlns="http://www.w3.org/2000/svg" xmlns:xlink="http://www.w3.org/1999/xlink" width="231" height="84.986" viewBox="0 0 231 84.986">
  <defs>
    <linearGradient id="linear-gradient" y1="0.5" x2="1" y2="0.5" gradientUnits="objectBoundingBox">
      <stop offset="0" stop-color="#32a94a"/>
      <stop offset="0.085" stop-color="#3eab48"/>
      <stop offset="0.303" stop-color="#58b146"/>
      <stop offset="0.527" stop-color="#6bb545"/>
      <stop offset="0.756" stop-color="#77b844"/>
      <stop offset="1" stop-color="#7bb944"/>
    </linearGradient>
    <linearGradient id="linear-gradient-2" y1="0.5" x2="1" y2="0.5" gradientUnits="objectBoundingBox">
      <stop offset="0" stop-color="#7bb944"/>
      <stop offset="1" stop-color="#32a94a"/>
    </linearGradient>
    <linearGradient id="linear-gradient-6" x1="-81.1" y1="0.5" x2="-80.1" y2="0.5" xlink:href="#linear-gradient"/>
  </defs>
  <g id="Groupe_11" data-name="Groupe 11" transform="translate(-742.344 -421.607)">
    <path id="Tracé_79" data-name="Tracé 79" d="M1192.141,483s-31.538,41.9-63.816,47.824-15.1-14.954-15.1-14.954S1153.348,481.072,1192.141,483Z" transform="translate(-218.797 -38.917)" fill="url(#linear-gradient)"/>
    <path id="Tracé_80" data-name="Tracé 80" d="M742.344,483s31.537,41.9,63.815,47.824,15.1-14.954,15.1-14.954S781.136,481.072,742.344,483Z" transform="translate(0 -38.917)" fill="url(#linear-gradient-2)"/>
    <path id="Tracé_81" data-name="Tracé 81" d="M835.25,546.587s8.381,6.959,10.039,7.181-.415-.814-.415-.814S836.953,547.845,835.25,546.587Z" transform="translate(-54.331 -74.578)" fill="#fff"/>
    <path id="Tracé_82" data-name="Tracé 82" d="M1176.134,552.989s7.921-5.108,9.624-6.367c0,0-8.381,6.959-10.039,7.181" transform="translate(-253.402 -74.597)" fill="#fff"/>
    <path id="Tracé_83" data-name="Tracé 83" d="M1019.709,582.883a38.259,38.259,0,0,0,10.218,2.813s32.13,21.321,99.35-19.248c0,0-23.584-17.471-109.217,4.738l-.351,1.332Z" transform="translate(-169.259 -84.702)" fill="url(#linear-gradient)"/>
    <path id="Tracé_84" data-name="Tracé 84" d="M881.988,582.883a38.266,38.266,0,0,1-10.218,2.813s-32.13,21.321-99.35-19.248c0,0,23.584-17.471,109.218,4.738l.351,1.332Z" transform="translate(-16.749 -84.702)" fill="url(#linear-gradient-2)"/>
    <path id="Tracé_85" data-name="Tracé 85" d="M881.7,601.725s32.574,7.867,52.414,3.869,0-1.806,0-1.806S919.012,607.787,881.7,601.725Z" transform="translate(-82.558 -107.986)" fill="#fff"/>
    <path id="Tracé_86" data-name="Tracé 86" d="M1083.991,601.725s-32.574,7.867-52.414,3.869,0-1.806,0-1.806S1046.679,607.787,1083.991,601.725Z" transform="translate(-166.125 -107.986)" fill="#fff"/>
    <ellipse id="Ellipse_6" data-name="Ellipse 6" cx="71.848" cy="37.362" rx="71.848" ry="37.362" transform="translate(785.143 421.607)" fill="#f0ea74"/>
    <path id="Tracé_87" data-name="Tracé 87" d="M1019.709,473.6s5.628-1.7,8.589-4.442c0,0,15.325-5.034,6.811-26.5,0,0-17.1,8.069-9.55,26.355,0,0,4.59-3.775,7.033-12.882C1032.592,456.134,1031.4,468.645,1019.709,473.6Z" transform="translate(-162.448 -11.725)" fill="url(#linear-gradient)"/>
    <path id="Tracé_88" data-name="Tracé 88" d="M993.466,473.6s-5.628-1.7-8.589-4.442c0,0-15.325-5.034-6.811-26.5,0,0,17.1,8.069,9.55,26.355,0,0-4.59-3.775-7.033-12.882C980.583,456.134,981.771,468.645,993.466,473.6Z" transform="translate(-136.551 -11.725)" fill="url(#linear-gradient-6)"/>
    <circle id="Ellipse_7" data-name="Ellipse 7" cx="3.109" cy="3.109" r="3.109" transform="translate(854.458 430.491)" fill="#683b11"/>
    <path id="Tracé_89" data-name="Tracé 89" d="M983.288,439.541s16.385,7.354,12.24,29.958C995.528,469.5,1006.879,446.5,983.288,439.541Z" transform="translate(-141.027 -9.988)" fill="#683b11"/>
    <path id="Tracé_90" data-name="Tracé 90" d="M1021.774,469.5s-11.351-23,12.24-29.958c0,0-16.385,7.354-12.24,29.958" transform="translate(-161.955 -9.988)" fill="#683b11"/>
    <g id="Groupe_9" data-name="Groupe 9" transform="translate(832.797 458.298)">
      <path id="Tracé_91" data-name="Tracé 91" d="M970.7,518.617a3,3,0,0,1-.217.472q-1.55,2.7-3.794,1.871a3.963,3.963,0,0,1-1.841-1.347l-.1.262a2.853,2.853,0,0,0-.275,1.2,2.558,2.558,0,0,1,.053.586.628.628,0,0,1-.354.365.662.662,0,0,1-.512.023.82.82,0,0,1-.613-.68,2.886,2.886,0,0,1,.178-.94q.131-.433.335-.982a5.569,5.569,0,0,1,.291-.615,5.652,5.652,0,0,0,.3-.627l.313-.848a10.8,10.8,0,0,1,.457-1.085q.332-.707.461-1.056l.415-1.122c.006-.016.051-.255.137-.715a.983.983,0,0,1,.716-.076.692.692,0,0,1,.441.44.97.97,0,0,1-.021.665l-.064.174a2.679,2.679,0,0,1,2.483-.315,2.384,2.384,0,0,1,1.543,1.576,3.437,3.437,0,0,1-.135,2.246l-.1.262ZM969.641,518a3.968,3.968,0,0,0,.282-1.568,1.257,1.257,0,0,0-.806-1.233,2.079,2.079,0,0,0-2.078.564,4.238,4.238,0,0,0-1.371,1.831,1.639,1.639,0,0,0,1.105,2.378,1.548,1.548,0,0,0,1.671-.3,6.464,6.464,0,0,0,1.077-1.458C969.6,518.06,969.645,517.99,969.641,518Z" transform="translate(-963.049 -513.269)" fill="#683b11"/>
      <path id="Tracé_92" data-name="Tracé 92" d="M981.314,526.778a.517.517,0,0,1-.287.345.663.663,0,0,1-.472.051q-.812-.207-.27-2.332.247-.966.758-2.893t.758-2.893a4.005,4.005,0,0,0,.076-.461,3.986,3.986,0,0,1,.073-.448,1.4,1.4,0,0,1,.742-.113.94.94,0,0,1,.494.325.579.579,0,0,1,.138.536,1.13,1.13,0,0,1-.15.319q-.169.286-.188.309a12.059,12.059,0,0,0-.745,2.224q-.594,2.331-.611,2.4a8.4,8.4,0,0,0-.307,2.336A.946.946,0,0,1,981.314,526.778Z" transform="translate(-972.527 -515.914)" fill="#683b11"/>
      <path id="Tracé_93" data-name="Tracé 93" d="M989.674,532.113q-.121.653-1.078.855a3.817,3.817,0,0,1-1.5.019q-2.013-.372-1.59-2.66a5.811,5.811,0,0,1,.845-2.007q.823-1.307,1.62-1.16a2.649,2.649,0,0,1,1.431.927,1.782,1.782,0,0,1,.583,1.487,1.6,1.6,0,0,1-1.025,1.23,2.881,2.881,0,0,1-1.706.157,1.481,1.481,0,0,1-.547-.331q-.178,1.252.5,1.378a2.244,2.244,0,0,0,1.191-.118,2.186,2.186,0,0,1,.773-.2Q989.732,531.8,989.674,532.113Zm-.968-2.734a1.149,1.149,0,0,0-.075-.656.585.585,0,0,0-.448-.387.756.756,0,0,0-.737.256,1.5,1.5,0,0,0-.339.735.533.533,0,0,0,.095.436.62.62,0,0,0,.4.237Q988.558,530.177,988.706,529.38Z" transform="translate(-975.513 -520.997)" fill="#683b11"/>
      <path id="Tracé_94" data-name="Tracé 94" d="M999.913,526.767a3.128,3.128,0,0,1-.185.661,3.085,3.085,0,0,0-.185.661l-.32,2.719a3.251,3.251,0,0,0,.066.811.555.555,0,0,1-.476.252.829.829,0,0,1-.822-.94q.05-1.561.142-2.339a18.908,18.908,0,0,1,.364-2.179l.016-.132q.028-.237.394-.194a1.759,1.759,0,0,1,.638.209Q999.946,526.49,999.913,526.767Zm.336-1.834a.623.623,0,0,1-.254.452.693.693,0,0,1-.51.128,1.016,1.016,0,0,1-.612-.313.725.725,0,0,1-.228-.616.614.614,0,0,1,.26-.451.734.734,0,0,1,.53-.125.971.971,0,0,1,.607.306A.737.737,0,0,1,1000.249,524.932Z" transform="translate(-982.509 -519.245)" fill="#683b11"/>
      <path id="Tracé_95" data-name="Tracé 95" d="M1008.24,535a.579.579,0,0,1-.509.277,1.978,1.978,0,0,1-.728-.307l.009-.16q.017-.292.062-.862t.061-.835q.161-2.84-.684-2.888-.238-.013-.562.341a4.2,4.2,0,0,0-1.093,2.694,3.888,3.888,0,0,0,.049.675,3.857,3.857,0,0,1,.048.675.358.358,0,0,1-.19.3.639.639,0,0,1-.378.1q-.8-.045-.739-1.054l.157-2.774a2.62,2.62,0,0,1,.044-.31,2.58,2.58,0,0,0,.044-.31,3.466,3.466,0,0,0-.02-.467,3.309,3.309,0,0,1-.021-.454.53.53,0,0,1,.268-.391.758.758,0,0,1,.456-.167.849.849,0,0,1,.578.366l-.07.529a1.42,1.42,0,0,1,1.252-.715,1.893,1.893,0,0,1,.964.374,2.2,2.2,0,0,1,.716.76,5.591,5.591,0,0,1,.394,2.685Z" transform="translate(-985.623 -522.07)" fill="#683b11"/>
      <path id="Tracé_96" data-name="Tracé 96" d="M1026.428,522.851a4.727,4.727,0,0,1-.036.761q-.07.63-.089.751-.017.413.014,2.436t.043,2.234a5,5,0,0,0,.389,1.895.631.631,0,0,1-.5.4.761.761,0,0,1-.557-.2.834.834,0,0,1-.3-.522,1.894,1.894,0,0,1-1.241.645,1.8,1.8,0,0,1-1.539-.59,2.488,2.488,0,0,1-.584-1.577,6.434,6.434,0,0,1,.34-2.4q.522-1.561,1.5-1.619a1.875,1.875,0,0,1,1.224.449q.031-.627-.118-3.189c-.009-.159.105-.246.344-.26a1.282,1.282,0,0,1,.749.17A.722.722,0,0,1,1026.428,522.851Zm-1.279,4.588a1.716,1.716,0,0,0-.246-.811.752.752,0,0,0-.69-.413q-.6.035-.847,1.234a6.152,6.152,0,0,0-.142,1.686q.071,1.234.788,1.192.743-.043,1.011-1.164A5.912,5.912,0,0,0,1025.148,527.439Z" transform="translate(-995.894 -518.165)" fill="#683b11"/>
      <path id="Tracé_97" data-name="Tracé 97" d="M1035.053,520.87q.007.053-.136.2l-.144.138a3.04,3.04,0,0,0-.334.789q-.136.432-.259.861c-.081.224-.2.345-.358.364a.533.533,0,0,1-.287-.046.312.312,0,0,1-.215-.229q.215-.669.441-1.351.379-1.089.563-1.111a.9.9,0,0,1,.434.1C1034.943,520.672,1035.041,520.765,1035.053,520.87Z" transform="translate(-1002.185 -517.288)" fill="#683b11"/>
      <path id="Tracé_98" data-name="Tracé 98" d="M1044.506,518.576a16.711,16.711,0,0,1,.246,2.935,21.488,21.488,0,0,1-.292,3.289q-.41,2.58-1.061,2.713a2.222,2.222,0,0,1-1.056.012q-.882-.268-2.066-3.078-.731-1.913-1.472-3.824a3.016,3.016,0,0,0-.2-.38,1.3,1.3,0,0,1-.153-.118.322.322,0,0,1-.1-.183.591.591,0,0,1,.23-.536,1.034,1.034,0,0,1,.533-.312.859.859,0,0,1,.635.121.765.765,0,0,1,.376.513q.047.235.114.723t.114.723a12.621,12.621,0,0,0,.849,2.5q1.168,2.665,1.546,2.588c.164-.034.3-.2.4-.5a11.823,11.823,0,0,0,.469-3.351,15.047,15.047,0,0,0-.193-3.406.551.551,0,0,0-.28-.411q-.219-.111-.225-.137c-.019-.1.063-.244.248-.444a1.026,1.026,0,0,1,.434-.333.6.6,0,0,1,.558.272A1.438,1.438,0,0,1,1044.506,518.576Z" transform="translate(-1004.983 -515.718)" fill="#683b11"/>
      <path id="Tracé_99" data-name="Tracé 99" d="M1056.155,520.333a.624.624,0,0,1-.051.516.694.694,0,0,1-.417.322,1.014,1.014,0,0,1-.686-.041.725.725,0,0,1-.457-.472.617.617,0,0,1,.058-.518.736.736,0,0,1,.435-.327.968.968,0,0,1,.678.036A.736.736,0,0,1,1056.155,520.333Zm.428,1.815a3.1,3.1,0,0,1,.1.679,3.151,3.151,0,0,0,.1.68l.8,2.619a3.2,3.2,0,0,0,.385.716.555.555,0,0,1-.334.422.83.83,0,0,1-1.13-.531q-.581-1.448-.809-2.2a18.936,18.936,0,0,1-.542-2.141c-.013-.042-.026-.085-.039-.127q-.07-.229.283-.336a1.748,1.748,0,0,1,.669-.065Q1056.5,521.882,1056.583,522.148Z" transform="translate(-1013.987 -516.888)" fill="#683b11"/>
      <path id="Tracé_100" data-name="Tracé 100" d="M1066.652,525.282q.245.619-.459,1.3a3.82,3.82,0,0,1-1.265.814q-1.9.752-2.759-1.411a5.82,5.82,0,0,1-.348-2.149q0-1.545.758-1.843a2.647,2.647,0,0,1,1.7.027,1.78,1.78,0,0,1,1.283.951,1.6,1.6,0,0,1-.216,1.587,2.884,2.884,0,0,1-1.362,1.038,1.488,1.488,0,0,1-.639.009q.513,1.156,1.156.9a2.252,2.252,0,0,0,.947-.732,2.155,2.155,0,0,1,.552-.575Q1066.535,524.986,1066.652,525.282Zm-2.27-1.8a1.148,1.148,0,0,0-.412-.516.586.586,0,0,0-.586-.09.755.755,0,0,0-.489.608,1.492,1.492,0,0,0,.1.8.534.534,0,0,0,.312.32.623.623,0,0,0,.467-.013Q1064.679,524.232,1064.381,523.478Z" transform="translate(-1018.057 -518.054)" fill="#683b11"/>
    </g>
    <g id="Groupe_10" data-name="Groupe 10" transform="translate(800.443 466.406)">
      <path id="Tracé_101" data-name="Tracé 101" d="M897.468,546.336a3.79,3.79,0,0,1-2.928,1.32,4.5,4.5,0,0,1-3.158-.971,3.821,3.821,0,0,1-1.519-3.652,7.778,7.778,0,0,1,1.876-3.7,9.849,9.849,0,0,1,3.817-2.889,4.031,4.031,0,0,1,4.437.358,3.686,3.686,0,0,1,1.2,1.7,2.571,2.571,0,0,1-.168,2.042q-.417.794-.393.766-1.572,1.9-2.432,1.187a.96.96,0,0,1-.33-.564.693.693,0,0,1,.143-.611,1.279,1.279,0,0,1,.5-.293,1.275,1.275,0,0,0,.508-.308,2.864,2.864,0,0,0,.73-1.289,1.426,1.426,0,0,0-.668-1.257,2.339,2.339,0,0,0-2.225-.219,5.91,5.91,0,0,0-2.1,1.09,12.448,12.448,0,0,0-1.6,1.582,8.264,8.264,0,0,0-1.4,2.131,2.53,2.53,0,0,0,.328,2.425,2.637,2.637,0,0,0,.443.512,2.381,2.381,0,0,0,1.442.469,3.873,3.873,0,0,0,1.519-.265,2.463,2.463,0,0,0,.814-.606l-.021-.09a5.286,5.286,0,0,0-1.779-1.062c-.162-.038-.328-.07-.5-.1a1.259,1.259,0,0,1-.441-.2.824.824,0,0,1-.31-.763,1.535,1.535,0,0,1,.357-.84.768.768,0,0,1,.757-.243,7.843,7.843,0,0,1,1.573.843,17.711,17.711,0,0,1,1.555,1.07Q898.667,544.888,897.468,546.336Z" transform="translate(-889.82 -535.963)" fill="#7b0f00"/>
      <path id="Tracé_102" data-name="Tracé 102" d="M921.461,546.055q-.037.065-.323.117l-.277.035a4.27,4.27,0,0,0-1.032.612q-.512.374-1.007.755a.653.653,0,0,1-.706.113.745.745,0,0,1-.285-.29.439.439,0,0,1-.052-.436q.8-.575,1.619-1.156,1.331-.913,1.558-.785a1.257,1.257,0,0,1,.4.475Q921.572,545.861,921.461,546.055Z" transform="translate(-905.371 -540.998)" fill="#7b0f00"/>
      <path id="Tracé_103" data-name="Tracé 103" d="M927.861,564.058l-.035.086a.818.818,0,0,1-.792.121.671.671,0,0,1-.4-.462q.1-.683-1.469-2.943a8.026,8.026,0,0,0-2.255-2.538l-.311-.125c-.166-.054-.277-.092-.334-.116l-.272.673a6.946,6.946,0,0,0-.284.949,2.778,2.778,0,0,0-.152.922,1.633,1.633,0,0,1,.1.643.678.678,0,0,1-.448.411.913.913,0,0,1-.632-.025,1.313,1.313,0,0,1-.829-.878q-.178-.554,1.037-3.555a1.668,1.668,0,0,1-.668-.531.809.809,0,0,1-.211-.768q.257-.638,1.526-.447.285-.506.714-1.417.46-1.038.68-1.432.327-.51.928-1.551l-.137-.056q-.7-.262-.446-.883a.674.674,0,0,1,.686-.505l.656.065a2.826,2.826,0,0,1,.708-.186,1.671,1.671,0,0,1,.668.16c.207.084.273.218.2.4-.023.058.109.144.4.261a7.334,7.334,0,0,1,3.1,2.2,3.348,3.348,0,0,1,.591,3.551,3.527,3.527,0,0,1-1.853,2,8.979,8.979,0,0,1-2.718.567q.91,1.271,1.8,2.537A3.112,3.112,0,0,1,927.861,564.058Zm.78-8.678a1.942,1.942,0,0,0-.449-2.129,4.889,4.889,0,0,0-1.924-1.32q-.156-.063-.766-.249a10.867,10.867,0,0,1-1.195,2.006,18.8,18.8,0,0,0-1.341,2.569,6.281,6.281,0,0,0,1.107.849,2.489,2.489,0,0,0,.655.125,4.842,4.842,0,0,0,2.3-.3A2.743,2.743,0,0,0,928.641,555.381Z" transform="translate(-906.478 -543.508)" fill="#7b0f00"/>
      <path id="Tracé_104" data-name="Tracé 104" d="M951.982,569.794q-.221.865-1,.685a6.538,6.538,0,0,0,.111,1.219.885.885,0,0,1-.49.566,1.133,1.133,0,0,1-.786.068,1.926,1.926,0,0,1-.707-.392,2.547,2.547,0,0,1,.051-1.178q.041-.162.138-.464c.064-.2.109-.35.133-.447q-.032.127-.627-.025-1.01-.258-2.421-.522a5.971,5.971,0,0,0-2.233-.243,5.66,5.66,0,0,0-.718,1.872.724.724,0,0,1-.683.19,1.3,1.3,0,0,1-.695-.513.909.909,0,0,1-.224-.778,6.475,6.475,0,0,1,.582-.927q.687-1.188,2.152-3.541,4.105-6,5.71-5.591,1.568.4,1.523,4.115a40.169,40.169,0,0,1-.526,4.993,2.871,2.871,0,0,1,.549.332A.56.56,0,0,1,951.982,569.794Zm-2.35-1.33q.813-6.5.182-6.656-.505-.129-2.521,2.506-1.446,1.9-2.368,3.333.609.021,1.791.131A19.988,19.988,0,0,1,949.633,568.465Z" transform="translate(-918.775 -549.21)" fill="#7b0f00"/>
      <path id="Tracé_105" data-name="Tracé 105" d="M981.552,568.458a18.134,18.134,0,0,1-1.369,4.662q-1.44,3.357-2.915,3.161-1.291-.172-1.664-1.892a11.825,11.825,0,0,1-.136-2.8,24.714,24.714,0,0,1-1.07,2.693q-.935,1.81-1.913,1.68a1.809,1.809,0,0,1-1.229-.782q-.67-.9-.5-5.135.1-2.9.455-5.552.188-1.421,1.406-1.259,1.089.144,1.023.642a1,1,0,0,1-.2.452c-.112.154-.22.305-.324.453a5.527,5.527,0,0,0-.5,1.977q-.935,7.053.149,7.2.386.051,1.3-2.619a27.165,27.165,0,0,0,1.321-4.882q.034-.258.418-.479a1.09,1.09,0,0,1,.661-.184,1.512,1.512,0,0,1,.95.521,1.405,1.405,0,0,1,.381,1.01,3.768,3.768,0,0,0-.631,1.93q-.69,5.2.288,5.324.941.125,1.849-2.763a22.76,22.76,0,0,0,.851-3.724,5.106,5.106,0,0,0,.058-1.083,6.01,6.01,0,0,0-.275-1.108,2.3,2.3,0,0,1-.178-.926,1.679,1.679,0,0,1,.311-.786.767.767,0,0,1,.726-.374q.572.076.755,2.09A12.491,12.491,0,0,1,981.552,568.458Z" transform="translate(-934.875 -551.143)" fill="#7b0f00"/>
      <path id="Tracé_106" data-name="Tracé 106" d="M1014.209,567.89a.825.825,0,0,1-.2.547.616.616,0,0,1-.495.228,2.361,2.361,0,0,1-.623-.164,2.419,2.419,0,0,0-.752-.165l-1.284-.012q-.279,0-.308.044a1.529,1.529,0,0,0-.068.362l-.237,1.393a41.566,41.566,0,0,0-.408,5.709,6.058,6.058,0,0,0,.474,2.963l0,.5a1.322,1.322,0,0,1-.56.181,1.482,1.482,0,0,1-1.533-1.168,8.841,8.841,0,0,1-.147-2.141q.017-1.842.1-2.865.023-.446.225-2.138a20.111,20.111,0,0,0,.169-2.139l.005-.539q-.263.016-1.012.12a7.043,7.043,0,0,1-1.012.083q-1.291-.013-1.284-.775,0-.317.19-.37.283-.407,2.928-.68a32,32,0,0,1,3.314-.192,4.958,4.958,0,0,1,1.561.238Q1014.215,567.239,1014.209,567.89Z" transform="translate(-954.11 -553.067)" fill="#7b0f00"/>
      <path id="Tracé_107" data-name="Tracé 107" d="M1035.295,570.8a15.616,15.616,0,0,1-.146,3.293,6.219,6.219,0,0,1-1.021,3.036,3.152,3.152,0,0,1-2.306,1.185,3.43,3.43,0,0,1-2.261-.609,4.36,4.36,0,0,1-1.59-2.222,11.193,11.193,0,0,1-.471-2.766q-.059-.853-.066-2.579t-.066-2.579a1.354,1.354,0,0,0-.142-.428,1.333,1.333,0,0,1-.141-.428q-.033-.464.69-.813a2.927,2.927,0,0,1,1.116-.319q.631-.043.658.346a1.546,1.546,0,0,1-.144.607,1.573,1.573,0,0,0-.144.626,20.315,20.315,0,0,1-.03,2.259,20.185,20.185,0,0,0-.03,2.278l.159,2.3a4.148,4.148,0,0,0,.538,1.847,1.586,1.586,0,0,0,1.538.938q1.856-.128,2.234-3.587a31.866,31.866,0,0,0-.064-4.976,4.564,4.564,0,0,0-.508-1.961.857.857,0,0,1-.136-.345,1.034,1.034,0,0,1,.206-.667.736.736,0,0,1,.563-.356,1.4,1.4,0,0,1,.77.208.726.726,0,0,1,.439.566Z" transform="translate(-966.265 -552.065)" fill="#7b0f00"/>
      <path id="Tracé_108" data-name="Tracé 108" d="M1058.391,571.308a3.793,3.793,0,0,1-.949,3.069,4.5,4.5,0,0,1-2.818,1.724,3.82,3.82,0,0,1-3.743-1.279,7.774,7.774,0,0,1-1.53-3.853,9.855,9.855,0,0,1,.361-4.773,4.032,4.032,0,0,1,3.206-3.089,3.678,3.678,0,0,1,2.07.222,2.57,2.57,0,0,1,1.419,1.478q.32.838.315.8.383,2.435-.72,2.608a.956.956,0,0,1-.641-.126.691.691,0,0,1-.363-.511,1.278,1.278,0,0,1,.109-.566,1.279,1.279,0,0,0,.106-.584,2.863,2.863,0,0,0-.483-1.4,1.426,1.426,0,0,0-1.385-.331,2.339,2.339,0,0,0-1.636,1.522,5.9,5.9,0,0,0-.577,2.3,12.453,12.453,0,0,0,.128,2.245,8.265,8.265,0,0,0,.669,2.461,2.531,2.531,0,0,0,2.035,1.359,2.651,2.651,0,0,0,.677.007,2.381,2.381,0,0,0,1.306-.771,3.862,3.862,0,0,0,.807-1.314,2.471,2.471,0,0,0,.085-1.012l-.082-.044a5.274,5.274,0,0,0-1.973.631q-.2.145-.4.308a1.258,1.258,0,0,1-.439.2.825.825,0,0,1-.778-.273,1.543,1.543,0,0,1-.393-.824.771.771,0,0,1,.319-.728,7.882,7.882,0,0,1,1.673-.621,17.667,17.667,0,0,1,1.831-.458Q1058.1,569.452,1058.391,571.308Z" transform="translate(-978.59 -551.05)" fill="#7b0f00"/>
      <path id="Tracé_109" data-name="Tracé 109" d="M1072.55,561.406a1.272,1.272,0,0,1-.072.437,3.42,3.42,0,0,0,.042.849q.55,4.15,1.253,7.216a4.777,4.777,0,0,0,.441,1.254,6.677,6.677,0,0,0,.788,1.023.268.268,0,0,1,.043.1q.086.381-.8.584l-.163.038q-.93.194-1.466-1.23a38.243,38.243,0,0,1-1.389-4.894q-.17-.744-.486-2.246t-.491-2.265a1.1,1.1,0,0,1,.253-.9,1.345,1.345,0,0,1,.765-.576,1.275,1.275,0,0,1,.77.11A.764.764,0,0,1,1072.55,561.406Z" transform="translate(-990.293 -549.785)" fill="#7b0f00"/>
      <path id="Tracé_110" data-name="Tracé 110" d="M1093.306,563.54q.272.851-.483,1.113a6.567,6.567,0,0,0,.742.973.886.886,0,0,1-.114.74,1.135,1.135,0,0,1-.63.475,1.922,1.922,0,0,1-.806.044,2.549,2.549,0,0,1-.583-1.025q-.051-.159-.13-.467t-.125-.448q.04.124-.544.311-.993.318-2.328.844a5.974,5.974,0,0,0-2.021.98,5.648,5.648,0,0,0,.387,1.967.722.722,0,0,1-.477.525,1.3,1.3,0,0,1-.861-.066.909.909,0,0,1-.6-.539,6.407,6.407,0,0,1,0-1.095q-.049-1.372-.059-4.144.288-7.265,1.866-7.771,1.541-.494,3.477,2.676a40.354,40.354,0,0,1,2.208,4.51,2.859,2.859,0,0,1,.641-.01A.557.557,0,0,1,1093.306,563.54Zm-2.7.123q-2.763-5.934-3.383-5.736-.5.16-.8,3.463-.216,2.376-.235,4.082.527-.305,1.587-.841A19.962,19.962,0,0,1,1090.609,563.663Z" transform="translate(-998.337 -547.063)" fill="#7b0f00"/>
      <path id="Tracé_111" data-name="Tracé 111" d="M1105.7,547.094a.829.829,0,0,1,.06.58.618.618,0,0,1-.346.422,2.355,2.355,0,0,1-.631.125,2.408,2.408,0,0,0-.748.181l-1.16.552c-.168.08-.254.138-.257.174a1.514,1.514,0,0,0,.1.355c.089.3.221.754.4,1.356a41.585,41.585,0,0,0,2.136,5.311,6.05,6.05,0,0,0,1.725,2.456l.216.454a1.322,1.322,0,0,1-.424.408,1.482,1.482,0,0,1-1.891-.378,8.83,8.83,0,0,1-1.071-1.86q-.792-1.664-1.165-2.619-.175-.411-.735-2.02a20.082,20.082,0,0,0-.785-2l-.232-.487q-.229.13-.856.552a7.1,7.1,0,0,1-.872.518q-1.166.556-1.494-.134-.135-.285.008-.416.076-.489,2.334-1.894a31.956,31.956,0,0,1,2.9-1.625,4.933,4.933,0,0,1,1.507-.47Q1105.424,546.506,1105.7,547.094Z" transform="translate(-1005.54 -541.894)" fill="#7b0f00"/>
      <path id="Tracé_112" data-name="Tracé 112" d="M1127.648,540.336a7.639,7.639,0,0,1,1.7,4.414,4.665,4.665,0,0,1-1.941,4.118,4.97,4.97,0,0,1-1.413.724,4.391,4.391,0,0,1-3.368-.033,7.1,7.1,0,0,1-2.6-2.279,8.937,8.937,0,0,1-1.889-4.666,4.66,4.66,0,0,1,1.789-4.471,4.146,4.146,0,0,1,4.2-.505A7.8,7.8,0,0,1,1127.648,540.336Zm-1.523.948q-2.344-3.08-4.791-2.178a2.168,2.168,0,0,0-.518.3,3.15,3.15,0,0,0-1.1,2q-.405,2.2,1.938,5.283a4.6,4.6,0,0,0,.716.7,4.162,4.162,0,0,0,2.006,1.069,2.831,2.831,0,0,0,2.14-.692,3.081,3.081,0,0,0,1.165-3.2A7.724,7.724,0,0,0,1126.125,541.284Z" transform="translate(-1016.955 -536.706)" fill="#7b0f00"/>
    </g>
    <path id="Tracé_113" data-name="Tracé 113" d="M961.388,539.719a103.175,103.175,0,0,1-18.468-1.67c-16.558-3.019-27.31-9.107-27.417-9.169l.265-.461c.106.061,10.794,6.11,27.269,9.111a100.733,100.733,0,0,0,63.61-9.118l.238.475A100.805,100.805,0,0,1,961.388,539.719Z" transform="translate(-103.784 -63.946)" fill="#422918"/>
  </g>
</svg>
