<svg xmlns="http://www.w3.org/2000/svg" width="49.97" height="43" viewBox="0 0 49.97 43"><g transform="translate(-165.016 -98.678)" opacity="0.41"><path d="M252.465,146.008s7.486-2.265,11.425-5.909c0,0,20.384-6.7,9.06-35.253,0,0-22.747,10.734-12.7,35.056,0,0,6.105-5.022,9.355-17.134C269.6,122.768,268.021,139.41,252.465,146.008Z" transform="translate(-61.389 -4.33)" fill="#db9b00"/><path d="M188.926,146.008s-7.486-2.265-11.425-5.909c0,0-20.384-6.7-9.06-35.253,0,0,22.748,10.734,12.7,35.056,0,0-6.105-5.022-9.355-17.134C171.79,122.768,173.37,139.41,188.926,146.008Z" transform="translate(0 -4.33)" fill="#db9b00"/><circle cx="4.136" cy="4.136" r="4.136" transform="translate(186.549 99.925)" fill="#db9b00"/><path d="M180.435,98.678s21.8,9.782,16.281,39.849C196.716,138.527,211.815,107.934,180.435,98.678Z" transform="translate(-10.824)" fill="#db9b00"/><path d="M254.782,138.527s-15.1-30.593,16.281-39.849c0,0-21.8,9.782-16.281,39.849" transform="translate(-60.466)" fill="#db9b00"/></g></svg>