<svg xmlns="http://www.w3.org/2000/svg" width="68.231" height="50.279" viewBox="0 0 68.231 50.279"><path d="M1046.28,411.312c-.695.128-1.547.307-2.406.436-.614.092-1.237.11-1.856.174-.424.044-.845.122-1.27.16q-1.767.156-3.538.288c-1.151.086-2.3.2-3.456.228-1.1.025-2.2-.013-3.3-.083-1.524-.1-3.052-.19-4.564-.393a33.5,33.5,0,0,1-4.164-.8c-1.767-.467-3.515-1.025-5.24-1.634a31.145,31.145,0,0,1-3-1.361,5.4,5.4,0,0,1-1.215-.7,33.51,33.51,0,0,1-2.9-2.684c-1.15-1.263-2.218-2.606-3.239-3.974a11.643,11.643,0,0,1-1.185-2.2,52.782,52.782,0,0,1-2.785-9.144,57.357,57.357,0,0,1-1.2-5.646,16.2,16.2,0,0,1,.485-5.733,35.276,35.276,0,0,1,.892-3.916,10.868,10.868,0,0,1,2.921-4.728,19.554,19.554,0,0,1,3.979-2.991,17.762,17.762,0,0,1,4.864-1.909,28.594,28.594,0,0,1,2.995-.577,28.309,28.309,0,0,1,5.1-.074,30.764,30.764,0,0,1,4.4.9,33.92,33.92,0,0,1,3.568,1.214c1,.374,1.989.8,2.982,1.214.226.092.521.132.659.3.473.575.792.416,1.3-.027a17.769,17.769,0,0,1,9.525-4.168c1.387-.192,2.76-.544,4.151-.633a36.348,36.348,0,0,1,4.263.1,13.347,13.347,0,0,1,6.013,1.879,24.169,24.169,0,0,1,3.239,2.649,9.073,9.073,0,0,1,1.962,2.764,32.326,32.326,0,0,1,2.093,4.407,18.159,18.159,0,0,1,1.44,4.942,35.227,35.227,0,0,0,.571,3.809,21.526,21.526,0,0,1,.169,5.376,28.148,28.148,0,0,1-1.364,6.377,18.725,18.725,0,0,1-1.961,3.865,30.272,30.272,0,0,1-11,10.167,10.733,10.733,0,0,1-2.173.764c-1.671.464-3.353.888-5.033,1.319A4.469,4.469,0,0,1,1046.28,411.312Zm-3.991-22.234a14.988,14.988,0,0,0,.072-6.016,22.211,22.211,0,0,0-.855-4.12c-1.065-2.766-2.263-5.508-4.669-7.443-.734-.591-1.29-1.411-2.258-1.719-.293-.093-.518-.387-.788-.57a6.838,6.838,0,0,0-.98-.6c-.9-.4-1.809-.794-2.73-1.149a31.751,31.751,0,0,0-3.311-1.174c-1.478-.387-3.02-.542-4.484-.967a7.9,7.9,0,0,0-2.63-.234,20.631,20.631,0,0,0-7.439,1.476,23.118,23.118,0,0,0-2.8,1.323c-.783.472-1.437,1.156-2.179,1.7a9.386,9.386,0,0,0-3.351,4.47c-.436,1.238-.706,2.535-1.045,3.806a17.836,17.836,0,0,0-.035,8.887c.369,1.542.836,3.061,1.172,4.608a41.507,41.507,0,0,0,2.409,7.494,8.075,8.075,0,0,0,1.049,1.779c1.022,1.315,2.055,2.626,3.176,3.854a16.966,16.966,0,0,0,2.673,2.434,16.264,16.264,0,0,0,5.126,2.266c1.552.43,3.044,1.117,4.616,1.421,2.094.406,4.239.545,6.361.807a42.055,42.055,0,0,0,10.06-.1c3.253-.379,6.488-.954,9.7-1.586a19.071,19.071,0,0,0,8.359-4.022,29.962,29.962,0,0,0,5.251-5.277,20.7,20.7,0,0,0,3.755-7.279,23.535,23.535,0,0,0,.847-8.895c-.224-1.771-.541-3.535-.9-5.284-.241-1.163-.62-2.3-.962-3.439a17.135,17.135,0,0,0-.6-1.644c-.28-.671-.571-1.34-.908-1.984-.182-.347-.524-.614-.693-.966a12.14,12.14,0,0,0-4.95-5.338,16.472,16.472,0,0,0-7.654-1.782,32.045,32.045,0,0,0-7.488,1.035,14.043,14.043,0,0,0-5.2,2.158c-.812.542-1.554,1.19-2.36,1.816.478.4.839.731,1.225,1.028a12.667,12.667,0,0,1,3.791,4.692c.485,1.023,1.02,2.022,1.547,3.059.464-.4.922-.859,1.444-1.229a11.9,11.9,0,0,1,2.261-1.409,10.893,10.893,0,0,1,4.455-.6,5.871,5.871,0,0,1,4.943,2.429c.929,1.338,1.924,2.739,1.859,4.525a1.369,1.369,0,0,0,.029.182,22.385,22.385,0,0,1,.252,2.79c-.031,1.192-.229,2.38-.356,3.571a13.228,13.228,0,0,1-1.741,5.164,16.109,16.109,0,0,1-3.555,4.007,4.933,4.933,0,0,1,.98,4.047,3.609,3.609,0,0,1-1.616,2.537c-.763.458-1.578.824-2.37,1.231-.361.185-.72.518-1.083.523a13.466,13.466,0,0,1-3.562-.179,9.674,9.674,0,0,1-4.74-2.6c-.443-.468-.956-.873-1.391-1.265-.9.852-1.75,1.73-2.676,2.523-.811.7-1.744,1.25-2.549,1.954a5.541,5.541,0,0,1-3.055,1.4c-.92.108-1.856.08-2.784.113a4.362,4.362,0,0,1-3.607-1.983c-.747-.935-.49-2.117-.366-3.156a14.419,14.419,0,0,1,.97-2.889c-.816-.311-1.672-.679-2.553-.966a8.761,8.761,0,0,1-3.841-2.517c-.69-.765-1.318-1.588-1.961-2.4a17.275,17.275,0,0,1-1.925-2.928,12.565,12.565,0,0,1-1.266-5.341,9.577,9.577,0,0,1,1.786-6.466,13.033,13.033,0,0,1,2.266-2.143,6.6,6.6,0,0,1,2.967-1.06,10.435,10.435,0,0,1,4.426-.138,17.2,17.2,0,0,1,4.652,1.748c.3.173.574.389.872.563a28.688,28.688,0,0,1,3.448,2.051c1.62,1.289,3.112,2.739,4.612,4.171.806.77,1.5,1.651,2.265,2.469C1040.554,387.259,1041.426,388.165,1042.289,389.078Zm4.888,15.005c.5-.2,1.364-.581,2.253-.882a3.479,3.479,0,0,0,2.4-3.152,2.086,2.086,0,0,0-.165-1.052,3.924,3.924,0,0,0-1.208-1.863c-.5-.359-.766-1.047-1.26-1.43-2.141-1.655-4.347-3.227-6.489-4.88a30.016,30.016,0,0,1-2.737-2.422c-.76-.754-1.411-1.62-2.14-2.409-.623-.673-1.268-1.329-1.939-1.956a48.446,48.446,0,0,0-3.8-3.418,51.128,51.128,0,0,0-4.378-2.748.833.833,0,0,0-1.267.695c-.068.441-.178.874-.23,1.316a10.137,10.137,0,0,0-.169,2.032,22.141,22.141,0,0,0,.529,3.48,11.573,11.573,0,0,0,1.714,4.283c.389.519.849.983,1.272,1.476a21.693,21.693,0,0,0,1.474,1.709c1.14,1.076,2.352,2.075,3.5,3.144.845.788,1.621,1.652,2.453,2.456,1.01.972,2.076,1.886,3.063,2.881A9.245,9.245,0,0,0,1047.177,404.083Zm-21.4-26.955a5.818,5.818,0,0,0-3.654-.806,13.507,13.507,0,0,0-4.982,1.046,5.493,5.493,0,0,0-1.616,1.184,6.521,6.521,0,0,0-1.722,2.885,12.722,12.722,0,0,0-.145,5.521,8.885,8.885,0,0,0,2,4.388c.787.925,1.428,1.974,2.231,2.883a8.056,8.056,0,0,0,2.864,2.317c1.311.542,2.632,1.062,3.87,1.559,1.616-1.733,3.176-3.405,4.739-5.08-.254-.361-.574-.827-.905-1.286a18.661,18.661,0,0,1-1.76-2.467,28.709,28.709,0,0,1-1.223-3.372,10.692,10.692,0,0,1-.445-5.062C1025.2,379.608,1025.514,378.4,1025.776,377.128Zm25.3,19c.773-.718,1.566-1.356,2.243-2.1a13.654,13.654,0,0,0,3.231-8.835,12.506,12.506,0,0,0-1.179-6.192,5.48,5.48,0,0,0-4.547-3.3,10.215,10.215,0,0,0-4.278.436,7.64,7.64,0,0,0-3.342,2.034,1.468,1.468,0,0,0-.353,2,.766.766,0,0,1,.068.3c.182,1.264.344,2.53.545,3.791a22.541,22.541,0,0,1,0,4.815c-.021.376-.051.9.165,1.115a13.39,13.39,0,0,0,2,1.591A31.689,31.689,0,0,1,1051.081,396.132Zm-20.818-2.242a12.874,12.874,0,0,0-1.316,1.117c-.845.949-1.571,2.013-2.474,2.9a10.994,10.994,0,0,0-2.4,3.969,3.154,3.154,0,0,0,1.028,3.445,4.117,4.117,0,0,0,2.4.712,6.326,6.326,0,0,0,4.554-1.148c.849-.608,1.692-1.23,2.476-1.917.909-.8,1.75-1.671,2.709-2.6Z" transform="translate(-1000.625 -362.576)" fill="#fff" stroke="#fff" stroke-miterlimit="10" stroke-width="0.5" fill-rule="evenodd"/></svg>