<svg xmlns="http://www.w3.org/2000/svg" width="64.678" height="65.46" viewBox="0 0 64.678 65.46"><g transform="translate(-133.005 -294.645)"><path d="M148.851,314.273a.443.443,0,0,1-.686-.155.437.437,0,0,1,.12-.684c.14-.1.4-.279.765-.536s.65-.461.848-.611a.467.467,0,0,1,.607.015.631.631,0,0,1,.258.58q-.305,1.752-.534,2.667t-.7,2.628q-.475,1.715-.679,2.624a36.993,36.993,0,0,0-.675,3.89q-.181,1.4-.313,2.083l-.047.211-.048.212c-.012.056-.031.123-.055.2s-.048.144-.07.206a.517.517,0,0,1-.107.176,1.526,1.526,0,0,1-.156.154.571.571,0,0,1-.892-.469.213.213,0,0,0,0-.088.541.541,0,0,1,.145-.457,6.619,6.619,0,0,1,.107-.664c.038-.243.1-.592.17-1.049.048-.42.128-1.031.233-1.836a34.315,34.315,0,0,1,.746-3.607q.095-.333.663-2.5t.828-3.333Z" transform="translate(3.25 4.23)" fill="#fff"/><path d="M151.565,317.888a31.008,31.008,0,0,0-1.228,4.565,14.8,14.8,0,0,0-.411,3.015q0,1.778.793,2a1.8,1.8,0,0,0,1.753-.284,3.855,3.855,0,0,0,1.167-1.636A24.022,24.022,0,0,0,155,320.083c.032-.276.06-.528.082-.76s.055-.586.1-1.066a9.2,9.2,0,0,0,.029-1.27q-.03-.551-.11-1.136a2.181,2.181,0,0,0-.321-.937.832.832,0,0,0-.612-.393c-.374.019-.779.313-1.219.879a10.52,10.52,0,0,0-1.38,2.489m-1.1,10.722a2.506,2.506,0,0,1-1.635-2.012,8.355,8.355,0,0,1-.063-2.135,13.1,13.1,0,0,1,.355-2.172c.171-.659.338-1.353.5-2.086a14.63,14.63,0,0,1,2.242-5.224,3.926,3.926,0,0,1,1.559-1.4.576.576,0,0,1,.415-.261,3.362,3.362,0,0,1,.8.025,1.158,1.158,0,0,1,.629.318,3.04,3.04,0,0,1,.454.546,2.932,2.932,0,0,1,.307.714c.083.284.153.554.206.8a5.625,5.625,0,0,1,.113.834c.02.31.03.575.032.8s0,.453.011.69a25.943,25.943,0,0,1-.784,5.064c-.006.03-.056.236-.15.622s-.155.624-.182.715-.087.3-.175.627a4.973,4.973,0,0,1-.24.722c-.072.154-.163.355-.271.606a3.9,3.9,0,0,1-.344.643,5.587,5.587,0,0,1-.392.513,3.619,3.619,0,0,1-1.592,1.051,2.579,2.579,0,0,1-1.8.006" transform="translate(3.792 4.501)" fill="#fff"/><path d="M157.2,319.156a31.365,31.365,0,0,0-1.226,4.565,14.8,14.8,0,0,0-.411,3.015q0,1.778.793,2a1.8,1.8,0,0,0,1.751-.284,3.813,3.813,0,0,0,1.167-1.636,23.889,23.889,0,0,0,1.363-5.466c.034-.276.061-.527.083-.76s.053-.586.1-1.066a8.82,8.82,0,0,0,.029-1.27c-.019-.369-.057-.746-.109-1.136a2.182,2.182,0,0,0-.321-.937.839.839,0,0,0-.613-.393,1.868,1.868,0,0,0-1.219.879,10.569,10.569,0,0,0-1.381,2.489m-1.1,10.722a2.5,2.5,0,0,1-1.635-2.012,8.305,8.305,0,0,1-.062-2.135,12.825,12.825,0,0,1,.355-2.172c.169-.659.336-1.353.5-2.086a14.629,14.629,0,0,1,2.24-5.224,3.937,3.937,0,0,1,1.56-1.4.579.579,0,0,1,.415-.261,3.309,3.309,0,0,1,.8.025,1.162,1.162,0,0,1,.629.318,3.073,3.073,0,0,1,.452.546,2.8,2.8,0,0,1,.307.714c.083.284.153.552.209.8a5.675,5.675,0,0,1,.112.835c.021.31.031.575.032.8s.006.453.011.69a26.044,26.044,0,0,1-.783,5.064c-.007.03-.057.236-.153.622s-.154.623-.181.715-.086.3-.175.626a4.773,4.773,0,0,1-.241.724q-.108.231-.268.6a3.863,3.863,0,0,1-.346.644,5.305,5.305,0,0,1-.392.511,3.6,3.6,0,0,1-1.591,1.053,2.586,2.586,0,0,1-1.8.006" transform="translate(5.151 4.806)" fill="#fff"/><path d="M164.117,330.731c.259-.1.49-.474.694-1.107q.266-.9-.1-.956a.73.73,0,0,1-.114.019.642.642,0,0,1-.365-.06,1.067,1.067,0,0,1-.1.134,3.61,3.61,0,0,0-.289.889c-.12.536-.1.887.051,1.055a.231.231,0,0,0,.217.026m.755-3.16c.6.045.961.417,1.094,1.112a3.142,3.142,0,0,1-.348,2.086,1.778,1.778,0,0,1-1.447,1.106,1.154,1.154,0,0,1-1.266-.739,2.846,2.846,0,0,1-.112-1.724,5.874,5.874,0,0,1,.2-.678,5.545,5.545,0,0,1,.331-.735,1.464,1.464,0,0,1,.534-.591.786.786,0,0,1,.691-.067.5.5,0,0,1,.326.228m-1.734-9.272a.146.146,0,0,1,.006.07,1.5,1.5,0,0,0,.784-1.112c.019-.084.036-.2.055-.344a4.074,4.074,0,0,1-.582-.176,2.815,2.815,0,0,0-.273.917,1.279,1.279,0,0,0,.01.645m.5,1.045a.966.966,0,0,1-1.062-.062,1.4,1.4,0,0,1-.513-1.026,3.444,3.444,0,0,1,.145-1.388,3.175,3.175,0,0,1,.664-1.226.423.423,0,0,1,.56-.119,1.232,1.232,0,0,1,1.376.4c.088.006.434.02,1.044.046a6.807,6.807,0,0,1,1.4.17.641.641,0,0,1,.331.252.51.51,0,0,1,.073.416,4.574,4.574,0,0,1-.416,1.106q-.292.557-.712,1.237t-.609,1.04q-.173.363-1.71,3.746-.514,1.108-1.754,4.246a15.609,15.609,0,0,1-.971,2.048l-.2.377a.706.706,0,0,1-.16.319.63.63,0,0,1-.6.2.458.458,0,0,1-.4-.31.733.733,0,0,1,.007-.531,2.826,2.826,0,0,1,.237-.458c.118-.195.19-.32.217-.372a20.276,20.276,0,0,0,.93-2.058q.951-2.448,1.681-4.017.188-.447.492-1.146c.2-.464.385-.879.556-1.239s.357-.735.561-1.117c.107-.214.362-.637.763-1.273a9.637,9.637,0,0,0,.817-1.5c-.288-.035-.725-.066-1.312-.1a2.722,2.722,0,0,1-1.437,2.342" transform="translate(6.53 5.021)" fill="#fff"/><path d="M153.7,296.718c-.268-.061-.541-.115-.814-.163a16.1,16.1,0,0,0-15.382,5.727c-4.585,5.59-5.154,14.477-1.6,25.028,3.606,10.7,11.118,21.938,21.18,31.686.946-3.036,4.885-6.621,11.432-10.391,4.117-2.369,9.86-6.257,13.952-9.1,11.935-8.292,15.284-18.946,14.523-25.552A12.772,12.772,0,0,0,188.6,303.04c-6.535-2.428-14.758-.089-21.452,6.1a.324.324,0,0,1-.271.071.3.3,0,0,1-.209-.19c-2.32-6.519-7.02-10.96-12.972-12.3m3.467,63.122a.3.3,0,0,1-.14-.075c-10.306-9.89-18.006-21.35-21.684-32.266-3.621-10.75-3.016-19.839,1.7-25.592a16.682,16.682,0,0,1,15.942-5.934c6.422,1.116,11.537,5.639,14.089,12.429,6.8-6.112,15.089-8.379,21.732-5.917a13.34,13.34,0,0,1,8.77,11.4c.779,6.766-2.623,17.664-14.774,26.1-4.1,2.85-9.859,6.746-13.995,9.128-6.544,3.77-10.537,7.444-11.244,10.347a.749.749,0,0,1-.087.25.289.289,0,0,1-.215.13.262.262,0,0,1-.1,0" transform="translate(0 0.258)" fill="#fff"/><path d="M154.137,295.617a16.3,16.3,0,0,0-16.355,5.788c-3.829,5.162-4.558,12.748-2.165,22.545,3.128,12.8,12.778,24.163,21.294,34.19l.221.263c2.852-5.579,10.017-10.369,15.8-14.235,1.213-.813,2.36-1.58,3.4-2.311l1.117-.781c5.791-4.039,11.779-8.217,15.565-14.155,3.837-6.016,5.028-15.062-.115-20.717-3.977-4.374-11.116-5.551-16.971-2.8a20.206,20.206,0,0,0-9.752,10.749,14.721,14.721,0,0,1-1.156,3.542.3.3,0,0,1-.555-.2,24.88,24.88,0,0,1,1.143-3.525,16.3,16.3,0,0,0-7.2-16.662,14.408,14.408,0,0,0-4.27-1.7m3,63.611a.288.288,0,0,1-.16-.1l-.516-.606c-8.556-10.079-18.256-21.5-21.416-34.435-2.438-9.977-1.676-17.727,2.264-23.038a16.173,16.173,0,0,1,29.125,11.136,20.334,20.334,0,0,1,9.248-9.319c6.084-2.859,13.512-1.623,17.66,2.937,5.342,5.873,4.133,15.228.176,21.433-3.85,6.038-9.886,10.251-15.724,14.324l-1.117.781c-1.05.735-2.2,1.5-3.415,2.316-5.863,3.92-13.161,8.8-15.793,14.406a.3.3,0,0,1-.228.168.322.322,0,0,1-.1,0" transform="translate(0.155 0)" fill="#fff"/><path d="M154.137,295.617a16.3,16.3,0,0,0-16.355,5.788c-3.829,5.162-4.558,12.748-2.165,22.545,3.128,12.8,12.778,24.163,21.294,34.19l.221.263c2.852-5.579,10.017-10.369,15.8-14.235,1.213-.813,2.36-1.58,3.4-2.311l1.117-.781c5.791-4.039,11.779-8.217,15.565-14.155,3.837-6.016,5.028-15.062-.115-20.717-3.977-4.374-11.116-5.551-16.971-2.8a20.206,20.206,0,0,0-9.752,10.749,14.721,14.721,0,0,1-1.156,3.542.3.3,0,0,1-.555-.2,24.88,24.88,0,0,1,1.143-3.525,16.3,16.3,0,0,0-7.2-16.662A14.408,14.408,0,0,0,154.137,295.617Zm3,63.611a.288.288,0,0,1-.16-.1l-.516-.606c-8.556-10.079-18.256-21.5-21.416-34.435-2.438-9.977-1.676-17.727,2.264-23.038a16.173,16.173,0,0,1,29.125,11.136,20.334,20.334,0,0,1,9.248-9.319c6.084-2.859,13.512-1.623,17.66,2.937,5.342,5.873,4.133,15.228.176,21.433-3.85,6.038-9.886,10.251-15.724,14.324l-1.117.781c-1.05.735-2.2,1.5-3.415,2.316-5.863,3.92-13.161,8.8-15.793,14.406a.3.3,0,0,1-.228.168A.322.322,0,0,1,157.134,359.228Z" transform="translate(0.155 0)" fill="#fff"/><path d="M137.137,313.366a.3.3,0,0,1,.07-.583,22.654,22.654,0,0,1,7.811,1.5.3.3,0,1,1-.212.552,22.083,22.083,0,0,0-7.607-1.465.247.247,0,0,1-.061-.007" transform="translate(0.941 4.375)" fill="#fff"/><path d="M146.369,313.1a.279.279,0,0,1-.14-.076,56.248,56.248,0,0,0-6.038-5.077.3.3,0,1,1,.346-.478,56.141,56.141,0,0,1,6.1,5.13.295.295,0,0,1-.271.5" transform="translate(1.703 3.079)" fill="#fff"/><path d="M146.56,310.189a.3.3,0,0,1-.209-.175,16.186,16.186,0,0,0-2.9-4.6.3.3,0,0,1,.441-.395,16.766,16.766,0,0,1,3.01,4.77.3.3,0,0,1-.159.386.3.3,0,0,1-.179.016" transform="translate(2.5 2.478)" fill="#fff"/><path d="M138.529,319.323a.3.3,0,0,1-.221-.214.3.3,0,0,1,.21-.361l6.06-1.624a.3.3,0,1,1,.154.572l-6.061,1.622a.3.3,0,0,1-.142,0" transform="translate(1.277 5.42)" fill="#fff"/><path d="M140.345,323.58a.291.291,0,0,1-.184-.125.3.3,0,0,1,.086-.411l4.727-3.1a.3.3,0,0,1,.324.5l-4.725,3.1a.293.293,0,0,1-.227.041" transform="translate(1.715 6.091)" fill="#fff"/><path d="M177.772,321.062a.3.3,0,0,0,.187-.557,22.665,22.665,0,0,0-7.7-1.986.3.3,0,0,0-.318.274.291.291,0,0,0,.273.315,22.1,22.1,0,0,1,7.5,1.934.2.2,0,0,0,.058.02" transform="translate(8.909 5.758)" fill="#fff"/><path d="M169.559,316.485a.3.3,0,0,0,.16-.009,55.849,55.849,0,0,1,7.63-2,.3.3,0,1,0-.108-.582,56.2,56.2,0,0,0-7.712,2.023.3.3,0,0,0,.03.568" transform="translate(8.761 4.642)" fill="#fff"/><path d="M170.05,313.776a.3.3,0,0,0,.263-.069,16.2,16.2,0,0,1,4.595-2.914.3.3,0,0,0-.228-.546,16.8,16.8,0,0,0-4.764,3.021.3.3,0,0,0-.021.418.293.293,0,0,0,.155.091" transform="translate(8.88 3.757)" fill="#fff"/><path d="M173.55,325.972a.3.3,0,0,0,.257-.514l-4.781-4.061a.3.3,0,0,0-.384.451l4.782,4.061a.286.286,0,0,0,.125.063" transform="translate(8.571 6.436)" fill="#fff"/><path d="M169.852,328.931a.294.294,0,0,0,.22-.036.3.3,0,0,0,.1-.407l-2.945-4.825a.3.3,0,1,0-.5.309l2.943,4.825a.3.3,0,0,0,.187.134" transform="translate(8.122 6.965)" fill="#fff"/></g></svg>