<svg xmlns="http://www.w3.org/2000/svg" width="61.678" height="53.075" viewBox="0 0 61.678 53.075"><g transform="translate(-165.016 -98.678)"><path d="M252.465,155.652s9.24-2.8,14.1-7.293c0,0,25.16-8.265,11.182-43.513,0,0-28.077,13.248-15.679,43.27,0,0,7.536-6.2,11.547-21.149C273.617,126.967,271.666,147.509,252.465,155.652Z" transform="translate(-55.282 -3.899)" fill="#fff"/><path d="M194.529,155.652s-9.24-2.8-14.1-7.293c0,0-25.16-8.265-11.182-43.513,0,0,28.077,13.248,15.679,43.27,0,0-7.536-6.2-11.547-21.149C173.377,126.967,175.327,147.509,194.529,155.652Z" transform="translate(0 -3.899)" fill="#fff"/><circle cx="5.105" cy="5.105" r="5.105" transform="translate(191.594 100.217)" fill="#fff"/><path d="M180.435,98.678s26.9,12.074,20.1,49.186C200.531,147.864,219.168,110.1,180.435,98.678Z" transform="translate(-9.747 0)" fill="#fff"/><path d="M255.633,147.864S237,110.1,275.728,98.678c0,0-26.9,12.074-20.1,49.186" transform="translate(-54.451 0)" fill="#fff"/></g></svg>