<svg xmlns="http://www.w3.org/2000/svg" width="50" height="50" viewBox="0 0 50 50">
  <defs>
    <style>
      .cls-1 {
        fill: #fff;
      }

      .cls-2 {
        fill: #f0ea74;
      }

      .cls-3 {
        fill: none;
      }
    </style>
  </defs>
  <g id="icon-delivery" transform="translate(-6522 166)">
    <g id="Groupe_160" data-name="Groupe 160" transform="translate(5280.687 -62.973)">
      <path id="Tracé_26" data-name="Tracé 26" class="cls-1" d="M1373.106-89.563h10.778c.639,0,.8.158.8.792q0,8.056,0,16.113c0,.587-.179.778-.729.778q-5.244,0-10.487,0c-.538,0-.842-.377-.646-.784.148-.308.426-.294.707-.294,3.172,0,6.344-.006,9.516.012.428,0,.561-.089.559-.546q-.028-7.207,0-14.414c0-.446-.073-.59-.562-.589q-9.977.029-19.955,0c-.419,0-.51.115-.491.507.033.694.009,1.391.009,2.086,0,.381-.118.7-.551.707-.452.012-.547-.313-.546-.693,0-.987,0-1.974,0-2.96,0-.567.151-.717.719-.718Q1367.668-89.564,1373.106-89.563Z" transform="translate(-108.489)"/>
      <path id="Tracé_27" data-name="Tracé 27" class="cls-1" d="M1611.046-48q0,2.863,0,5.725c0,.129,0,.259,0,.388a.5.5,0,0,1-.471.518c-.311.051-.467-.12-.571-.394a1.277,1.277,0,0,1-.052-.476q0-5.847,0-11.693a2.448,2.448,0,0,1,.094-.666c.194-.7.644-.923,1.362-.973.782-.054,1.567-.1,2.349-.168a6.659,6.659,0,0,1,3.919.807,6.612,6.612,0,0,1,2.74,2.583c.749,1.389,1.577,2.736,2.375,4.1a4.039,4.039,0,0,0,.953,1.265,1.2,1.2,0,0,1,.346,1.022c.013,1.746.04,3.494-.011,5.239a1.358,1.358,0,0,1-.346.98,1.389,1.389,0,0,1-1.027.334c-.971-.009-1.942-.013-2.912,0-.4.006-.7-.14-.7-.55s.3-.55.7-.545c.938.012,1.877-.006,2.815.011.286.005.4-.057.393-.37-.015-1.666-.01-3.332,0-5a.641.641,0,0,0-.273-.571,3.414,3.414,0,0,1-.755-1.053c-.894-1.53-1.75-3.085-2.694-4.584a5.5,5.5,0,0,0-4.287-2.564,27.971,27.971,0,0,0-3.49.064c-.408.01-.448.287-.448.6q0,2.45,0,4.9,0,.534,0,1.067Z" transform="translate(-332.791 -30.51)"/>
      <path id="Tracé_28" data-name="Tracé 28" class="cls-1" d="M1630.773-18.962c-1.244,0-2.489.005-3.733,0a.909.909,0,0,1-.994-.945q-.06-1.938-.079-3.876a.934.934,0,0,1,1.05-1.046c1.681-.008,3.363,0,5.044-.006a1.048,1.048,0,0,1,1,.549c.751,1.276,1.522,2.541,2.273,3.817a.986.986,0,0,1-.92,1.6c-1.212,0-2.425,0-3.637,0Zm3.541-1.077c-.7-1.168-1.4-2.339-2.095-3.517-.1-.178-.241-.182-.407-.182-1.473,0-2.945.005-4.418-.007-.274,0-.354.078-.344.354.038,1.018.063,2.037.068,3.055,0,.287.136.3.356.3C1629.739-20.041,1632-20.039,1634.314-20.039Z" transform="translate(-347.256 -58.439)"/>
      <path id="Tracé_29" data-name="Tracé 29" class="cls-2" d="M1250.792-1.87q-4.3,0-8.593,0a1.9,1.9,0,0,1-.434-.029.525.525,0,0,1-.416-.532.474.474,0,0,1,.424-.51,2.953,2.953,0,0,1,.483-.039q8.544,0,17.089.006c.678,0,.966.158.981.53.016.393-.292.571-.989.571h-8.545Z" transform="translate(0 -78.173)"/>
      <path id="Tracé_30" data-name="Tracé 30" class="cls-1" d="M1411.535,79.814a3.267,3.267,0,1,1,.063-6.534,3.267,3.267,0,1,1-.063,6.534Zm2.207-3.249a2.173,2.173,0,0,0-2.163-2.194,2.183,2.183,0,1,0-.028,4.366A2.181,2.181,0,0,0,1413.742,76.565Z" transform="translate(-150.728 -147.024)"/>
      <path id="Tracé_31" data-name="Tracé 31" class="cls-1" d="M1631.672,79.876a3.264,3.264,0,1,1,3.282-3.238A3.265,3.265,0,0,1,1631.672,79.876Zm-2.165-3.267a2.167,2.167,0,0,0,2.167,2.188,2.182,2.182,0,1,0,.011-4.365A2.166,2.166,0,0,0,1629.506,76.61Z" transform="translate(-349.45 -147.087)"/>
      <path id="Tracé_32" data-name="Tracé 32" class="cls-2" d="M1289.465-37.213q-2.694,0-5.389,0a1.422,1.422,0,0,1-.431-.04.52.52,0,0,1-.372-.562.5.5,0,0,1,.456-.49,2.151,2.151,0,0,1,.387-.011q5.389,0,10.778,0a1.5,1.5,0,0,1,.384.03.507.507,0,0,1,.4.541.472.472,0,0,1-.389.491,2.279,2.279,0,0,1-.48.04Q1292.135-37.21,1289.465-37.213Z" transform="translate(-37.852 -46.265)"/>
      <path id="Tracé_33" data-name="Tracé 33" class="cls-1" d="M1490.6,101.352c1.94,0,3.881,0,5.821,0,.4,0,.724.064.746.545.018.379-.211.544-.739.545q-5.87,0-11.74,0c-.4,0-.721-.076-.75-.546-.023-.371.221-.544.743-.544Q1487.644,101.35,1490.6,101.352Z" transform="translate(-219.026 -172.367)"/>
      <path id="Tracé_34" data-name="Tracé 34" class="cls-2" d="M1322.884,32.49c1.131,0,2.263.008,3.395,0,.4,0,.7.129.709.544.012.432-.312.558-.7.558-2.3,0-4.591.006-6.886,0-.42,0-.712-.267-.666-.6.054-.393.328-.507.7-.5C1320.588,32.5,1321.736,32.49,1322.884,32.49Z" transform="translate(-69.87 -110.193)"/>
      <path id="Tracé_35" data-name="Tracé 35" class="cls-1" d="M1363.676,52.954c-.485,0-.971,0-1.456,0-.543,0-.706-.152-.71-.678-.008-.97,0-1.941,0-2.911,0-.368.12-.659.532-.663.437,0,.564.305.565.687,0,.679.02,1.359-.007,2.038-.014.35.062.481.444.462.727-.035,1.456,0,2.184-.015.393-.009.656.149.655.536s-.26.556-.649.547C1364.711,52.946,1364.193,52.954,1363.676,52.954Z" transform="translate(-108.484 -124.834)"/>
      <path id="Tracé_36" data-name="Tracé 36" class="cls-1" d="M1368.313,102.439c-.339,0-.679.005-1.018,0a.54.54,0,1,1-.015-1.08c.71-.01,1.421-.008,2.132,0a.54.54,0,1,1,.016,1.08C1369.056,102.449,1368.684,102.439,1368.313,102.439Z" transform="translate(-113.209 -172.369)"/>
      <path id="Tracé_37" data-name="Tracé 37" class="cls-1" d="M1427.518,94.132a1.52,1.52,0,0,1-1.567-1.538,1.56,1.56,0,1,1,1.567,1.538Zm.007-1.094a.4.4,0,0,0,.443-.445.42.42,0,0,0-.46-.449.427.427,0,0,0-.459.453A.418.418,0,0,0,1427.525,93.039Z" transform="translate(-166.67 -163.067)"/>
      <path id="Tracé_38" data-name="Tracé 38" class="cls-1" d="M1647.577,94.135a1.541,1.541,0,1,1,.009-3.082,1.529,1.529,0,0,1,1.547,1.577A1.5,1.5,0,0,1,1647.577,94.135Zm-.038-1.092c.334.008.491-.163.5-.437a.416.416,0,0,0-.446-.458.427.427,0,0,0-.467.444A.4.4,0,0,0,1647.539,93.043Z" transform="translate(-365.354 -163.071)"/>
    </g>
    <rect id="Rectangle_72" data-name="Rectangle 72" class="cls-3" width="50" height="50" transform="translate(6522 -166)"/>
  </g>
</svg>
